<svg xmlns="http://www.w3.org/2000/svg" width="133" height="39" fill="none"><path fill="#136DF5" d="M0 39v-3.933L10.307 7.21H.321V0h18.784v3.933L8.798 31.79h10.628V39H0Zm38.372 0H22.317V0h15.894v7.21h-8.348v7.44h7.706v7.21h-7.706v9.93h8.509V39Zm10.43-9.537V39h-7.545V0h8.83l2.857 10.487c.257.896.525 1.901.803 3.015.279 1.093.546 2.196.803 3.31.257 1.093.47 2.065.642 2.917a279.64 279.64 0 0 1 1.028 5.047c.3 1.552.599 3.147.899 4.785.128.787.246 1.552.353 2.294.107.765.214 1.508.321 2.229h.642a211.476 211.476 0 0 0-.482-3.113c-.15-.94-.3-1.901-.449-2.884-.15-.984-.31-2.152-.482-3.507-.15-.961-.3-2.043-.45-3.245a270.44 270.44 0 0 1-.417-3.605 54.064 54.064 0 0 1-.257-3.179c-.064-.808-.117-1.595-.16-2.36a83.263 83.263 0 0 1-.032-2.26V0h7.546v39h-8.349L51.95 28.873a73.743 73.743 0 0 1-.738-2.622 546.19 546.19 0 0 0-.9-3.343 132.81 132.81 0 0 1-.834-3.54 445.549 445.549 0 0 1-1.092-4.915 121.04 121.04 0 0 1-.963-5.014 107.64 107.64 0 0 1-.418-2.327 152.32 152.32 0 0 1-.353-2.196h-.642c.214 1.42.45 2.928.706 4.523.257 1.573.514 3.244.77 5.014.215 1.704.429 3.43.643 5.178.214 1.726.385 3.42.514 5.08.043.83.075 1.65.096 2.458.043.787.064 1.551.064 2.294ZM71.59 39V7.21h-5.94V0h19.426v7.21h-5.94V39H71.59Zm36.276-28.84c0 1.944-.396 3.605-1.188 4.981a7.09 7.09 0 0 1-1.349 1.737c-.513.503-1.156.929-1.926 1.278a8.225 8.225 0 0 1-2.344.59v.525c.77 0 1.552.25 2.344.753a5.27 5.27 0 0 1 1.766 2c.107.218.192.436.257.655.085.219.16.437.224.655L109.471 39h-7.545l-4.463-16.485h-2.44V39h-7.546V0h11.238a8.92 8.92 0 0 1 2.954.492c.963.305 1.83.764 2.601 1.376a9.152 9.152 0 0 1 1.926 2.163c.535.809.953 1.737 1.253 2.786.278 1.07.417 2.185.417 3.343Zm-12.844 5.145h1.766c.407 0 .792-.055 1.156-.164.385-.11.739-.284 1.06-.524.556-.459.952-1.115 1.188-1.967.085-.371.128-.83.128-1.376 0-1.245-.31-2.229-.93-2.95-.622-.742-1.489-1.114-2.602-1.114h-1.766v8.095ZM110.267 39l5.972-39h10.789L133 39h-7.546l-1.124-8.947h-5.394L117.812 39h-7.545Zm9.568-16.157h3.596l-1.284-12.225a42.56 42.56 0 0 1-.096-1.343c-.022-.415-.043-.852-.064-1.311-.022-.48-.033-1.06-.033-1.737h-.642v1.41a4.14 4.14 0 0 0-.032.49c0 .22-.011.449-.032.689a6.848 6.848 0 0 0-.032.655c0 .437-.032.82-.096 1.147l-1.285 12.225Z"/></svg>