<svg xmlns="http://www.w3.org/2000/svg" width="1360" height="188" fill="none"><path fill="#fff" d="M0 186.446v-18.644L49.716 35.736H1.549V1.553h90.603v18.644L42.437 152.264H93.7v34.182H0Zm185.085 0h-77.439V1.554h76.664v34.181h-40.268v35.27h37.171v34.182h-37.171v47.077h41.043v34.182Zm50.311-45.213v45.213H199V1.554h42.591l13.784 49.719a425.465 425.465 0 0 1 3.872 14.294 697.826 697.826 0 0 1 3.872 15.693c1.239 5.179 2.272 9.788 3.098 13.828 1.858 8.597 3.51 16.573 4.956 23.927a2286.929 2286.929 0 0 1 4.336 22.684c.62 3.729 1.188 7.354 1.704 10.876.516 3.626 1.032 7.147 1.549 10.565h3.097a986.655 986.655 0 0 0-2.323-14.76c-.723-4.454-1.446-9.011-2.168-13.673-.723-4.661-1.497-10.202-2.323-16.624a504.308 504.308 0 0 1-2.169-15.382c-.722-5.8-1.394-11.498-2.013-17.091-.62-5.697-1.033-10.72-1.239-15.071-.31-3.833-.568-7.562-.775-11.187a388.759 388.759 0 0 1-.154-10.72V1.553h36.396v184.892h-40.268l-14.249-48.01c-1.033-3.314-2.22-7.457-3.562-12.429a2585.323 2585.323 0 0 0-4.337-15.848 653.192 653.192 0 0 1-4.027-16.78 2105.74 2105.74 0 0 1-5.266-23.306 565.628 565.628 0 0 1-4.646-23.772 500.572 500.572 0 0 1-2.013-11.032 706.871 706.871 0 0 1-1.704-10.41h-3.097c1.032 6.733 2.168 13.88 3.407 21.442a1338.92 1338.92 0 0 1 3.717 23.772c1.032 8.08 2.065 16.262 3.097 24.549a515.453 515.453 0 0 1 2.479 24.082c.206 3.936.361 7.821.464 11.653.207 3.729.31 7.354.31 10.876Zm109.915 45.213V35.736h-28.653V1.553h93.701v34.181h-28.652v150.711h-36.396ZM520.286 49.719c0 9.219-1.91 17.09-5.73 23.616a33.673 33.673 0 0 1-6.505 8.235c-2.478 2.383-5.576 4.403-9.293 6.06-3.511 1.45-7.279 2.382-11.306 2.796v2.486c3.717 0 7.486 1.192 11.306 3.574 3.614 2.382 6.453 5.542 8.518 9.478.517 1.035.93 2.071 1.239 3.107a37.162 37.162 0 0 1 1.085 3.108l18.43 74.267h-36.396l-21.528-78.152h-11.771v78.152h-36.396V1.554h54.207c4.956 0 9.706.777 14.249 2.33 4.646 1.45 8.828 3.626 12.545 6.526 3.717 3.004 6.814 6.422 9.292 10.255 2.582 3.832 4.595 8.234 6.041 13.206 1.342 5.076 2.013 10.358 2.013 15.848Zm-61.951 24.393h8.518c1.962 0 3.821-.259 5.576-.776a15.644 15.644 0 0 0 5.111-2.486c2.684-2.176 4.595-5.283 5.73-9.323.413-1.76.62-3.936.62-6.525 0-5.905-1.497-10.566-4.492-13.984-2.994-3.522-7.176-5.282-12.545-5.282h-8.518v38.376Zm73.531 112.334L560.673 1.554h52.039l28.807 184.892h-36.396l-5.421-42.416h-26.019l-5.421 42.416h-36.396Zm46.153-76.598h17.346l-6.195-57.954a208.114 208.114 0 0 1-.464-6.37c-.104-1.968-.207-4.04-.31-6.215-.103-2.279-.155-5.024-.155-8.235h-3.098v6.681a18.946 18.946 0 0 0-.154 2.331 36.3 36.3 0 0 1-.155 3.263 31.385 31.385 0 0 0-.155 3.107c0 2.072-.155 3.884-.465 5.438l-6.195 57.954Zm167.78-52.826V46.145c0-10.047-3.356-15.07-10.067-15.07-3.098 0-5.524 1.19-7.279 3.573-1.756 2.382-2.633 5.8-2.633 10.255 0 1.346.103 2.796.309 4.35.31 1.554.981 3.21 2.014 4.972.826 1.553 2.065 3.418 3.717 5.593 1.652 2.072 3.717 4.299 6.195 6.681a79.807 79.807 0 0 0 4.182 4.195 74.231 74.231 0 0 0 4.956 4.817c5.575 5.075 10.686 10.047 15.333 14.915 4.749 4.869 8.621 9.167 11.615 12.896 2.995 3.936 5.369 7.717 7.125 11.342a49.593 49.593 0 0 1 3.872 11.187c.413 1.968.671 3.988.774 6.06a65.68 65.68 0 0 1 .31 6.525c0 6.215-.671 11.964-2.014 17.247-1.342 5.179-3.407 9.84-6.195 13.983-2.581 3.936-5.988 7.303-10.222 10.099-4.13 2.797-8.673 4.817-13.629 6.06-5.472 1.45-11.357 2.175-17.656 2.175-12.7 0-23.025-2.745-30.975-8.235-7.848-5.386-13.062-13.413-15.643-24.082-1.342-5.179-2.013-11.135-2.013-17.868v-16.314h34.073v16.469c0 6.008 1.239 10.669 3.717 13.984 2.271 3.314 5.782 4.972 10.531 4.972a18.52 18.52 0 0 0 4.802-.622c1.548-.518 2.839-1.295 3.872-2.33.929-.933 1.806-2.072 2.633-3.419.825-1.45 1.445-3.211 1.858-5.282.103-.933.207-1.917.31-2.952.103-1.14.155-2.279.155-3.419 0-2.175-.155-4.039-.465-5.593-.31-1.657-.929-3.418-1.858-5.283-1.033-1.864-2.479-3.78-4.337-5.748-1.755-1.968-3.82-4.144-6.195-6.526a230.622 230.622 0 0 0-4.492-4.04 285.004 285.004 0 0 0-5.111-4.661c-5.782-5.179-10.841-9.892-15.178-14.139-4.233-4.35-7.847-8.545-10.841-12.585-2.994-3.936-5.369-7.716-7.124-11.342a58.257 58.257 0 0 1-3.717-11.342 50.326 50.326 0 0 1-.93-5.904 128.303 128.303 0 0 1-.155-6.37c0-5.697.568-10.98 1.704-15.848 1.239-4.972 3.149-9.323 5.73-13.052 5.06-7.25 12.391-12.119 21.993-14.605C723.6.621 729.02 0 735.112 0c11.564 0 21.064 2.33 28.498 6.992 2.478 1.553 5.111 3.988 7.898 7.302 2.788 3.315 4.957 7.82 6.505 13.518 1.239 4.66 1.859 9.84 1.859 15.537v13.673h-34.073Zm72.463 129.424V35.736H789.61V1.553h93.701v34.181h-28.652v150.711h-36.397Zm75.08-45.679V1.554h36.396v139.213c0 2.693.826 5.024 2.478 6.992a10.558 10.558 0 0 0 2.323 2.486c1.033.621 2.22 1.087 3.562 1.398 1.239.414 2.478.621 3.717.621 3.304 0 6.092-.984 8.364-2.952 2.374-2.071 3.562-4.92 3.562-8.545V1.554h36.396v139.213c0 11.601-2.788 21.234-8.363 28.899-2.891 3.936-6.247 7.251-10.067 9.944-3.821 2.589-8.312 4.661-13.475 6.215-4.956 1.45-10.428 2.175-16.417 2.175-6.298 0-11.925-.725-16.881-2.175-4.853-1.554-9.19-3.626-13.01-6.215-8.054-5.49-13.526-13.155-16.417-22.995-1.446-4.868-2.168-10.151-2.168-15.848ZM1007.12 1.554h49.71c12.7 0 23.34 3.729 31.91 11.187 4.02 3.625 7.48 8.234 10.37 13.828 3 5.593 5.17 11.652 6.51 18.178 1.44 7.044 2.17 14.709 2.17 22.995v52.516c0 8.597-.73 16.314-2.17 23.15-1.45 6.837-3.62 12.896-6.51 18.179-2.89 5.49-6.35 10.047-10.37 13.673-4.03 3.521-8.78 6.266-14.25 8.234-5.27 1.968-11.15 2.952-17.66 2.952h-49.71V1.554Zm36.39 150.71h5.11c15.18 0 22.77-10.668 22.77-32.006V67.742c0-21.338-7.59-32.007-22.77-32.007h-5.11v116.529Zm79.76 34.182V1.554h36.4v184.892h-36.4Zm50.41-93.534c0-10.254 1.6-19.939 4.8-29.054a96.636 96.636 0 0 1 13.48-25.636c5.68-7.77 12.44-14.502 20.29-20.199 7.95-5.697 16.47-10.099 25.55-13.206a90.392 90.392 0 0 1 14.1-3.574A90.843 90.843 0 0 1 1266.92 0c10.43 0 20.24 1.657 29.43 4.972 9.18 3.21 17.6 7.561 25.24 13.051 8.78 6.526 15.9 13.828 21.37 21.908 5.48 7.975 9.55 15.9 12.24 23.772a96.747 96.747 0 0 1 3.56 14.294c.83 4.868 1.24 9.84 1.24 14.915 0 10.151-1.6 20.043-4.8 29.676-3.1 9.633-7.49 18.438-13.17 26.414-5.78 7.872-12.64 14.76-20.59 20.664-7.85 5.801-16.27 10.255-25.25 13.362-9.4 3.315-19.15 4.972-29.27 4.972-10.33 0-20.14-1.657-29.43-4.972-9.29-3.314-17.76-7.82-25.4-13.517a99.647 99.647 0 0 1-20.29-20.354c-5.68-7.769-10.12-16.573-13.32-26.413a95.585 95.585 0 0 1-3.56-14.45 96.286 96.286 0 0 1-1.24-15.382Zm36.4.311c0 6.319.98 12.533 2.94 18.645 1.96 6.111 4.65 11.497 8.05 16.158 3.72 5.18 7.96 9.582 12.7 13.207 4.75 3.522 9.87 6.163 15.34 7.924a52.84 52.84 0 0 0 17.96 3.107c6.2 0 12.14-.984 17.81-2.952 5.68-2.071 10.85-4.92 15.49-8.545 4.65-3.522 8.73-7.717 12.24-12.585 3.51-4.972 6.19-10.41 8.05-16.314a64.145 64.145 0 0 0 2.17-9.012c.52-3.107.77-6.318.77-9.633a55.45 55.45 0 0 0-2.94-17.868c-1.96-5.904-4.65-11.186-8.05-15.848-7.23-9.84-16.52-16.78-27.88-20.82-5.68-1.967-11.56-2.951-17.66-2.951-4.95 0-10.32.828-16.1 2.486-5.79 1.553-11.57 4.453-17.35 8.7a62.281 62.281 0 0 0-12.55 12.43c-3.51 4.765-6.19 9.996-8.05 15.693-.93 2.9-1.65 5.904-2.17 9.011a54.67 54.67 0 0 0-.77 9.167Z"/></svg>