<svg xmlns="http://www.w3.org/2000/svg" width="244" height="206" fill="none"><mask id="a" width="232" height="134" x="12" y="7" maskUnits="userSpaceOnUse" style="mask-type:luminance"><path fill="#fff" d="M12.503 131.796V16.776c0-5.083 4.373-9.199 9.765-9.199h122.408c22.583 0 43.156 12.225 52.882 31.427l44.999 88.83c3.091 6.107-1.63 13.166-8.812 13.166H22.268c-5.392-.006-9.765-4.129-9.765-9.204Z"/></mask><g mask="url(#a)"><path fill="#FF5D17" d="M22.274 38.437v-1.765a3.97 3.97 0 0 1 3.968-3.968h64.341a3.97 3.97 0 0 1 3.968 3.968v1.765a3.97 3.97 0 0 1-3.968 3.968h-64.34a3.965 3.965 0 0 1-3.969-3.968Z"/><mask id="b" width="73" height="11" x="22" y="32" maskUnits="userSpaceOnUse" style="mask-type:luminance"><path fill="#fff" d="M22.274 38.437v-1.765a3.97 3.97 0 0 1 3.968-3.968h64.341a3.97 3.97 0 0 1 3.968 3.968v1.765a3.97 3.97 0 0 1-3.968 3.968h-64.34a3.965 3.965 0 0 1-3.969-3.968Z"/></mask><g mask="url(#b)"><path fill="#31343B" d="M34.21 48.317V37.908c0-1.314 1.153-2.377 2.576-2.377 1.424 0 2.28 1.205 2.577 2.377.65 2.57 1.971 10.409 1.971 10.409 0 1.314-3.124 2.377-4.548 2.377-1.423 0-2.576-1.063-2.576-2.377Z"/></g><mask id="c" width="73" height="11" x="22" y="32" maskUnits="userSpaceOnUse" style="mask-type:luminance"><path fill="#fff" d="M22.274 38.437v-1.765a3.97 3.97 0 0 1 3.968-3.968h64.341a3.97 3.97 0 0 1 3.968 3.968v1.765a3.97 3.97 0 0 1-3.968 3.968h-64.34a3.965 3.965 0 0 1-3.969-3.968Z"/></mask><g mask="url(#c)"><path fill="#31343B" d="M74.287 48.317V37.908c0-1.314 1.153-2.377 2.577-2.377 1.423 0 2.28 1.205 2.576 2.377.65 2.57 1.971 10.409 1.971 10.409 0 1.314-3.124 2.377-4.547 2.377-1.424 0-2.577-1.063-2.577-2.377Z"/></g><path fill="#708B0A" d="M38.616 57.857V37.535c0-1.23-1.076-2.222-2.41-2.222-1.333 0-2.408.991-2.408 2.222v20.322c-8.657 1.082-15.33 7.929-15.33 16.212 0 9.037 7.942 16.367 17.739 16.367s17.739-7.33 17.739-16.367c0-8.283-6.673-15.124-15.33-16.212Z"/><mask id="d" width="36" height="56" x="18" y="35" maskUnits="userSpaceOnUse" style="mask-type:luminance"><path fill="#fff" d="M38.616 57.857V37.535c0-1.23-1.076-2.222-2.41-2.222-1.333 0-2.408.991-2.408 2.222v20.322c-8.657 1.082-15.33 7.929-15.33 16.212 0 9.037 7.942 16.367 17.739 16.367s17.739-7.33 17.739-16.367c0-8.283-6.673-15.124-15.33-16.212Z"/></mask><g mask="url(#d)"><path stroke="#31343B" stroke-miterlimit="10" stroke-width="2" d="M19.047 66.63c3.362-5.224 9.945-9.166 16.695-9.16 6.744.007 14.377 3.395 17.038 9.81"/></g><mask id="e" width="36" height="56" x="18" y="35" maskUnits="userSpaceOnUse" style="mask-type:luminance"><path fill="#fff" d="M38.616 57.857V37.535c0-1.23-1.076-2.222-2.41-2.222-1.333 0-2.408.991-2.408 2.222v20.322c-8.657 1.082-15.33 7.929-15.33 16.212 0 9.037 7.942 16.367 17.739 16.367s17.739-7.33 17.739-16.367c0-8.283-6.673-15.124-15.33-16.212Z"/></mask><g mask="url(#e)"><path stroke="#31343B" stroke-miterlimit="10" stroke-width="2" d="M36.206 87.518c8.043 0 14.564-6.016 14.564-13.436s-6.52-13.436-14.564-13.436c-8.043 0-14.563 6.015-14.563 13.436 0 7.42 6.52 13.436 14.563 13.436Z"/></g><path fill="#708B0A" d="M87.653 59.17h-8.87V37.536c0-1.23-1.076-2.222-2.409-2.222-1.333 0-2.409.991-2.409 2.222V59.17h-8.87c-3.69 0-6.679 2.757-6.679 6.164v18.183c0 3.401 2.989 6.165 6.68 6.165h22.556c3.691 0 6.68-2.757 6.68-6.165V65.335c0-3.401-2.995-6.164-6.68-6.164Z"/><mask id="f" width="37" height="55" x="58" y="35" maskUnits="userSpaceOnUse" style="mask-type:luminance"><path fill="#fff" d="M87.653 59.17h-8.87V37.536c0-1.23-1.076-2.222-2.409-2.222-1.333 0-2.409.991-2.409 2.222V59.17h-8.87c-3.69 0-6.679 2.757-6.679 6.164v18.183c0 3.401 2.989 6.165 6.68 6.165h22.556c3.691 0 6.68-2.757 6.68-6.165V65.335c0-3.401-2.995-6.164-6.68-6.164Z"/></mask><g mask="url(#f)"><path stroke="#31343B" stroke-miterlimit="10" stroke-width="2" d="M62.809 58.72h29.037"/></g><mask id="g" width="37" height="55" x="58" y="35" maskUnits="userSpaceOnUse" style="mask-type:luminance"><path fill="#fff" d="M87.653 59.17h-8.87V37.536c0-1.23-1.076-2.222-2.409-2.222-1.333 0-2.409.991-2.409 2.222V59.17h-8.87c-3.69 0-6.679 2.757-6.679 6.164v18.183c0 3.401 2.989 6.165 6.68 6.165h22.556c3.691 0 6.68-2.757 6.68-6.165V65.335c0-3.401-2.995-6.164-6.68-6.164Z"/></mask><g mask="url(#g)"><path stroke="#31343B" stroke-miterlimit="10" stroke-width="2" d="M61.257 81.115V67.93a6.236 6.236 0 0 1 6.235-6.235h17.752a6.236 6.236 0 0 1 6.235 6.235v13.185a6.236 6.236 0 0 1-6.235 6.236H67.492a6.236 6.236 0 0 1-6.235-6.236Z"/></g></g><path fill="#1751FF" d="m129.514 199.821 2.061-44.618c.032-.638.387-1.23.96-1.591l4.644-2.899a2.356 2.356 0 0 1 1.269-.348l20.567.355c1.211.019 2.177.947 2.151 2.067l-1.211 50.454c-.026 1.205-1.191 2.119-2.486 1.958l-26.055-3.291c-1.133-.142-1.952-1.044-1.9-2.087Z"/><mask id="h" width="33" height="56" x="129" y="150" maskUnits="userSpaceOnUse" style="mask-type:luminance"><path fill="#fff" d="m129.514 199.821 2.061-44.618c.032-.638.387-1.23.96-1.591l4.644-2.899a2.356 2.356 0 0 1 1.269-.348l20.567.355c1.211.019 2.177.947 2.151 2.067l-1.211 50.454c-.026 1.205-1.191 2.119-2.486 1.958l-26.055-3.291c-1.133-.142-1.952-1.044-1.9-2.087Z"/></mask><g mask="url(#h)"><path stroke="#31343B" stroke-miterlimit="10" stroke-width="2" d="M138.731 145a928.898 928.898 0 0 0-4.026 68.232"/></g><path fill="#1751FF" d="M124.844 145.953c-2.132-1.185-1.939-6.197 0-7.53 6.428-4.419 30.647-4.863 36.36 0 1.72 1.462 1.939 5.391 0 6.718-4.496 3.092-17.017 4.174-26.57 3.208-.869-.09-4.489 5.7-5.365 8.779-.213.741-2.673.007-3.169-.914-1.153-2.152.56-9.45.167-9.604a12.255 12.255 0 0 1-1.423-.657Z"/><mask id="i" width="40" height="24" x="123" y="134" maskUnits="userSpaceOnUse" style="mask-type:luminance"><path fill="#fff" d="M124.844 145.953c-2.132-1.185-1.939-6.197 0-7.53 6.428-4.419 30.647-4.863 36.36 0 1.72 1.462 1.939 5.391 0 6.718-4.496 3.092-17.017 4.174-26.57 3.208-.869-.09-4.489 5.7-5.365 8.779-.213.741-2.673.007-3.169-.914-1.153-2.152.56-9.45.167-9.604a12.255 12.255 0 0 1-1.423-.657Z"/></mask><g stroke="#31343B" stroke-miterlimit="10" stroke-width="2" mask="url(#i)"><path d="M117.926 138.121c18.087 6.022 32.992 6.892 50.686-1.198"/><path d="M117.05 144.014c18.087 6.022 32.992 7.903 50.686-.187"/></g><path fill="#31343B" d="M99.31 130.765c-1.984-.297-8.154-5.392-3.504-7.44 9.23-4.071 21.817-17.34 21.817-17.34s6.505 8.432 5.938 10.467c-2.177 7.788-17.372 15.35-24.25 14.313Z"/><mask id="j" width="30" height="26" x="94" y="105" maskUnits="userSpaceOnUse" style="mask-type:luminance"><path fill="#fff" d="M99.31 130.765c-1.984-.297-8.154-5.392-3.504-7.44 9.23-4.071 21.817-17.34 21.817-17.34s6.505 8.432 5.938 10.467c-2.177 7.788-17.372 15.35-24.25 14.313Z"/></mask><g stroke="#FCFAED" stroke-miterlimit="10" stroke-width="2" mask="url(#j)"><path d="M97.107 115.892c2.08 7.987 5.971 17.642 15.453 16.863m-7.498-21.159c3.028 6.647 8.368 13.404 15.446 16.451"/></g><path fill="#1751FF" d="M122.254 120.961c-.96.483-3.253-.258-4.187-1.153-2.802-2.674-7.098-8.168-4.992-10.107 7.169-6.615 11.968-28.49 11.968-28.49l9.211 18.732c-.007.006-6.358 18.17-12 21.018Z"/><mask id="k" width="23" height="41" x="112" y="81" maskUnits="userSpaceOnUse" style="mask-type:luminance"><path fill="#fff" d="M122.254 120.961c-.96.483-3.253-.258-4.187-1.153-2.802-2.674-7.098-8.168-4.992-10.107 7.169-6.615 11.968-28.49 11.968-28.49l9.211 18.732c-.007.006-6.358 18.17-12 21.018Z"/></mask><g mask="url(#k)"><path fill="#31343B" d="M116.895 121.437c6.776-7.968 6.828-36.83 6.828-36.83.515 11.62 1.146 26.325-.129 38.099.006 0-11.247 4.09-6.699-1.269Z"/></g><path fill="#1751FF" d="M85.444 129.959s-2.474-8.676-.47-8.515c.225.019 3.38 1.932 3.38 1.932 2.507.573 4.793-1.243 6.217-1.108 2.17.2 6.17 6.416 4.792 8.837-.586 1.031-13.92-1.146-13.92-1.146Z"/><mask id="l" width="16" height="11" x="84" y="121" maskUnits="userSpaceOnUse" style="mask-type:luminance"><path fill="#fff" d="M85.444 129.959s-2.474-8.676-.47-8.515c.225.019 3.38 1.932 3.38 1.932 2.507.573 4.793-1.243 6.217-1.108 2.17.2 6.17 6.416 4.792 8.837-.586 1.031-13.92-1.146-13.92-1.146Z"/></mask><g mask="url(#l)"><path stroke="#31343B" stroke-miterlimit="10" stroke-width="2" d="M86.764 131.042c1.552-.709 3.413-2.48 4.36-4.007"/></g><path fill="#708B0A" d="m30.996 133.167-4.915-14.898c-.167-.516.548-.986 1.488-.986h38.26c.948 0 1.656.47 1.489.986l-1.63 4.947 26.776.186c.818.007 1.494.709 1.533 1.604l.07 1.411c.053 1.037-.708 1.913-1.654 1.906l-28.316-.051-1.681 4.889c-.129.399-.76.682-1.488.682H32.497c-.748.007-1.372-.283-1.501-.676Z"/><mask id="m" width="69" height="17" x="26" y="117" maskUnits="userSpaceOnUse" style="mask-type:luminance"><path fill="#fff" d="m30.996 133.167-4.915-14.898c-.167-.516.548-.986 1.488-.986h38.26c.948 0 1.656.47 1.489.986l-1.63 4.947 26.776.186c.818.007 1.494.709 1.533 1.604l.07 1.411c.053 1.037-.708 1.913-1.654 1.906l-28.316-.051-1.681 4.889c-.129.399-.76.682-1.488.682H32.497c-.748.007-1.372-.283-1.501-.676Z"/></mask><g mask="url(#m)"><path stroke="#31343B" stroke-miterlimit="10" stroke-width="2" d="M60.316 141.006c3.215-8.335 9.514-28.876 9.514-28.876"/></g><path fill="#1751FF" d="M83.13 124.265c.432-.206.98.322.844.818.67-.341 1.392-.689 2.126-.586.734.103 1.443.863 1.269 1.649.457-.477.934-.966 1.54-1.172.605-.207 1.365-.013 1.655.605.367.792-.213 1.701-.76 2.351-.696.818-1.418 1.636-2.326 2.151-.908.509-2.035.677-2.943.155-.876.689-2.08.451-3.13.193-1.122-.277-2.217-.927-3.466-.856-1.07.058-1.804-.471-1.945-1.224-.155-.805.264-1.617.747-2.248.438-.567.895-1.482 1.385-1.926 1.133-.87 4.045-4.445 5.906-3.556 2.821 1.353-1.166 3.504-.901 3.646Z"/><mask id="n" width="16" height="11" x="75" y="120" maskUnits="userSpaceOnUse" style="mask-type:luminance"><path fill="#fff" d="M83.13 124.265c.432-.206.98.322.844.818.67-.341 1.392-.689 2.126-.586.734.103 1.443.863 1.269 1.649.457-.477.934-.966 1.54-1.172.605-.207 1.365-.013 1.655.605.367.792-.213 1.701-.76 2.351-.696.818-1.418 1.636-2.326 2.151-.908.509-2.035.677-2.943.155-.876.689-2.08.451-3.13.193-1.122-.277-2.217-.927-3.466-.856-1.07.058-1.804-.471-1.945-1.224-.155-.805.264-1.617.747-2.248.438-.567.895-1.482 1.385-1.926 1.133-.87 4.045-4.445 5.906-3.556 2.821 1.353-1.166 3.504-.901 3.646Z"/></mask><g stroke="#31343B" stroke-miterlimit="10" stroke-width="2" mask="url(#n)"><path d="M85.552 123.125c-1.34 3.272-4.92 5.81-7.78 7.562m11.02-6.46c-1.61 4.077-3.027 5.958-6.016 7.967m-6.499-8.257c.078.554.438 1.024.883 1.295 1.3.805 4.657 1.842 7.323-3.234"/></g><path fill="#FF5D17" d="M59.35 136.735c7.046-.947 12.979-6.718 13.642-13.262.02-.219.032-.464-.116-.638-.734-.882-3.865 2.21-5.842 3.788-.883.708-1.997 1.462-3.111 1.133-.953-.277-1.462-1.294-1.417-2.215.051-.922 1.391-1.74.992-2.583-.741-1.572-3.697.367-5.089 1.494-1.398 1.127-2.454 2.564-3.8 3.749-1.552 1.365-3.858 2.383-5.81 1.571-2.12-.882-.928-4.502-2.995-5.481-1.527-.721-1.913 2.525-2.377 4.045-.464 1.52-1.559 3.246-3.272 3.182-.908-.039-1.681-.593-2.364-1.147-2.725-2.202-3.646-6.415-7.04-7.607-2.074-.727.463 4.876-1.843 5.173-1.784.231-2.125-3.537-3.96-2.815-2.371.927 1.52 10.145 10.183 11.104 7.162 1.302 14.647 1.798 24.219.509Z"/><path fill="#31343B" d="m129.507 138.333 1.61-69.507h23.214l-.876 69.507c-3.446 3.794-20.167 3.517-23.948 0Z"/><mask id="o" width="26" height="74" x="129" y="68" maskUnits="userSpaceOnUse" style="mask-type:luminance"><path fill="#fff" d="m129.507 138.333 1.61-69.507h23.214l-.876 69.507c-3.446 3.794-20.167 3.517-23.948 0Z"/></mask><g stroke="#FCFAED" stroke-miterlimit="10" stroke-width="2" mask="url(#o)"><path d="M122.37 70.147c13.404 3.426 28.232 2.595 41.005-2.294m-39.343 55.82c5.237 1.455 10.544 2.924 16.045 3.214 5.501.29 11.298-.722 15.523-3.742m-31.568 11.034c5.237 1.455 10.544 2.924 16.045 3.214 5.501.29 11.298-.722 15.523-3.743"/></g><path fill="#1751FF" d="M123.729 119.41V77.336l10.113-3.099c.206-.07 30.164 3.04 30.164 3.04l-.831 42.513s-30.106 3.697-30.318 3.594l-9.128-3.974Z"/><mask id="p" width="42" height="50" x="123" y="74" maskUnits="userSpaceOnUse" style="mask-type:luminance"><path fill="#fff" d="M123.729 119.41V77.336l10.113-3.099c.206-.07 30.164 3.04 30.164 3.04l-.831 42.513s-30.106 3.697-30.318 3.594l-9.128-3.974Z"/></mask><g mask="url(#p)"><path fill="#31343B" d="m141.662 82.707.521-4.972c.045-.432.335-.812.767-.986l14.235-4.618c.496-.206 1.732.296 2.119.644l23.8 17.681c.722.657.393 1.797-.592 2.036l-14.938 3.62a1.323 1.323 0 0 0-.779.521l-.663 14.596c.206 1.784-23.962-27.446-23.962-27.446a1.164 1.164 0 0 1-.508-1.076Z"/></g><mask id="q" width="42" height="50" x="123" y="74" maskUnits="userSpaceOnUse" style="mask-type:luminance"><path fill="#fff" d="M123.729 119.41V77.336l10.113-3.099c.206-.07 30.164 3.04 30.164 3.04l-.831 42.513s-30.106 3.697-30.318 3.594l-9.128-3.974Z"/></mask><g mask="url(#q)"><path stroke="#31343B" stroke-miterlimit="10" stroke-width="2" d="m134.1 71.416-1.314 59.768"/></g><mask id="r" width="42" height="50" x="123" y="74" maskUnits="userSpaceOnUse" style="mask-type:luminance"><path fill="#fff" d="M123.729 119.41V77.336l10.113-3.099c.206-.07 30.164 3.04 30.164 3.04l-.831 42.513s-30.106 3.697-30.318 3.594l-9.128-3.974Z"/></mask><g mask="url(#r)"><path stroke="#31343B" stroke-miterlimit="10" stroke-width="2" d="M163.085 119.744c-.638-.103-2.995.412-4.02.077-2.286-.753-1.996-3.555.104-4.38 2.441-.966 4.405-.876 6.956-1.545"/></g><mask id="s" width="42" height="50" x="123" y="74" maskUnits="userSpaceOnUse" style="mask-type:luminance"><path fill="#fff" d="M123.729 119.41V77.336l10.113-3.099c.206-.07 30.164 3.04 30.164 3.04l-.831 42.513s-30.106 3.697-30.318 3.594l-9.128-3.974Z"/></mask><g mask="url(#s)"><path fill="#FCFAED" d="m125.52 102.359-.657-28.534c-.006-.4.303-.747.728-.812l5.804-.92c.567-.091 1.069.34 1.017.862l-2.763 29.81c-.045.47-.509.805-1.011.728l-2.39-.361a.82.82 0 0 1-.728-.773Z"/><mask id="t" width="9" height="32" x="124" y="72" maskUnits="userSpaceOnUse" style="mask-type:luminance"><path fill="#fff" d="m125.52 102.359-.657-28.534c-.006-.4.303-.747.728-.812l5.804-.92c.567-.091 1.069.34 1.017.862l-2.763 29.81c-.045.47-.509.805-1.011.728l-2.39-.361a.82.82 0 0 1-.728-.773Z"/></mask><g stroke="#31343B" stroke-miterlimit="10" stroke-width="2" mask="url(#t)"><path d="M118.454 100.762c4.58-1.765 11.659-2.647 16.676-1.288m-15.491-4.593c4.682-1.533 10.428-2.654 15.278-1.295m-16.412-4.211s5.668-3.646 17.745-3.073m-17.713-3.955c10.126-3.859 17.72-3.24 17.72-3.24"/></g></g><path stroke="#31343B" stroke-miterlimit="10" stroke-width="2" d="M130.331 43.358c5.424-9.765 10.847-19.536 16.277-29.301"/><path fill="#1751FF" d="m120.573 66.72-1.997-31.124c-.058-.889.677-1.655 1.643-1.707l32.94-1.9c.239-.013.477.02.696.09l8.908 2.931c.747.245 1.224.928 1.159 1.655l-2.441 27.324c-.045.528-.373 1.005-.876 1.269l-8.811 4.65a1.907 1.907 0 0 1-.999.213l-28.599-1.887c-.876-.052-1.571-.702-1.623-1.514Z"/><mask id="u" width="46" height="40" x="118" y="31" maskUnits="userSpaceOnUse" style="mask-type:luminance"><path fill="#fff" d="m120.573 66.72-1.997-31.124c-.058-.889.677-1.655 1.643-1.707l32.94-1.9c.239-.013.477.02.696.09l8.908 2.931c.747.245 1.224.928 1.159 1.655l-2.441 27.324c-.045.528-.373 1.005-.876 1.269l-8.811 4.65a1.907 1.907 0 0 1-.999.213l-28.599-1.887c-.876-.052-1.571-.702-1.623-1.514Z"/></mask><g mask="url(#u)"><path stroke="#31343B" stroke-miterlimit="10" stroke-width="2" d="M154.177 26.379c-.708 16.219-2.885 31.626-3.594 47.845m6.473-16.458c-3.272-2.331-2.976-12.212 0-14.834 1.314-1.16 6.261-1.275 7.433 0 2.648 2.886 2.976 12.213 0 14.834-1.32 1.16-5.99 1.03-7.433 0Zm-33.739 6.809-1.527-25.681c-.064-1.12.87-2.08 2.087-2.132l24.419-1.018c1.307-.051 2.37.953 2.286 2.151l-2.041 28.052c-.084 1.114-1.128 1.958-2.339 1.88l-20.85-1.352c-1.101-.064-1.977-.882-2.035-1.9Z"/><path fill="#31343B" d="M142.41 55.86c2.116 0 3.832-2.489 3.832-5.56 0-3.07-1.716-5.558-3.832-5.558-2.117 0-3.833 2.489-3.833 5.559 0 3.07 1.716 5.559 3.833 5.559Zm-12.374-.71c1.693 0 3.066-2.17 3.066-4.85 0-2.678-1.373-4.85-3.066-4.85-1.694 0-3.066 2.172-3.066 4.85 0 2.68 1.372 4.85 3.066 4.85Z"/></g><path fill="#1751FF" d="M157.372 57.42c-2.982-2.223-2.712-11.646 0-14.146 1.198-1.101 5.707-1.217 6.77 0 2.409 2.75 2.711 11.646 0 14.145-1.192 1.102-5.45.98-6.77 0Z"/><mask id="v" width="12" height="17" x="155" y="42" maskUnits="userSpaceOnUse" style="mask-type:luminance"><path fill="#fff" d="M157.372 57.42c-2.982-2.223-2.712-11.646 0-14.146 1.198-1.101 5.707-1.217 6.77 0 2.409 2.75 2.711 11.646 0 14.145-1.192 1.102-5.45.98-6.77 0Z"/></mask><g mask="url(#v)"><path stroke="#31343B" stroke-miterlimit="10" stroke-width="2" d="M164.573 40.498c-4.947 6.126-3.44 16.219-.651 18.796"/></g><path fill="#31343B" d="M170.911 112.046c-4.431-3.15-4.715-17.649-2.847-20.612 1.926-3.06 10.19.148 13.14-1.21 4.335-1.997 3.337 16.747-.438 21.011-1.623 1.842-7.471 2.505-9.855.811Z"/><mask id="w" width="19" height="24" x="166" y="90" maskUnits="userSpaceOnUse" style="mask-type:luminance"><path fill="#fff" d="M170.911 112.046c-4.431-3.15-4.715-17.649-2.847-20.612 1.926-3.06 10.19.148 13.14-1.21 4.335-1.997 3.337 16.747-.438 21.011-1.623 1.842-7.471 2.505-9.855.811Z"/></mask><g stroke="#FCFAED" stroke-miterlimit="10" stroke-width="2" mask="url(#w)"><path d="M166.074 105.664c.889-4.342 6.358-7.466 9.443-8.593 2.692-.986 7.91-1.965 11.556.908m-20.933 13.256c0-3.909 14.57-8.785 21.726-3.504"/></g><path fill="#1751FF" d="m142.029 82.585.522-4.973c.045-.432.335-.812.766-.986l14.235-4.618c.496-.206 1.733.296 2.119.644l23.801 17.681c.721.657.393 1.797-.593 2.036l-14.937 3.62a1.328 1.328 0 0 0-.78.521l-.135 4.219c-.979 1.43-24.489-17.069-24.489-17.069a1.152 1.152 0 0 1-.509-1.075Z"/><mask id="x" width="42" height="30" x="142" y="71" maskUnits="userSpaceOnUse" style="mask-type:luminance"><path fill="#fff" d="m142.029 82.585.522-4.973c.045-.432.335-.812.766-.986l14.235-4.618c.496-.206 1.733.296 2.119.644l23.801 17.681c.721.657.393 1.797-.593 2.036l-14.937 3.62a1.328 1.328 0 0 0-.78.521l-.135 4.219c-.979 1.43-24.489-17.069-24.489-17.069a1.152 1.152 0 0 1-.509-1.075Z"/></mask><g mask="url(#x)"><path stroke="#31343B" stroke-miterlimit="10" stroke-width="2" d="M136.265 72.73a252.825 252.825 0 0 1 32.979 24.978"/></g><path fill="#1751FF" d="M165.076 119.099c-1.275.361-2.602.58-3.936.651-1.101.058-2.389-.071-3.001-.921-.696-.96-.065-2.345.966-2.995 1.03-.657 2.332-.799 3.568-1.011 3.124-.535 6.126-1.63 8.786-2.88 2.615-1.539 5.958-1.984 9.018-.998 2.737 2.055 4.715 4.953 5.558 8.174-.637 3.671-3.181 12.399-6.17 12.038-2.551-.309-.193-5.668-.374-10.112-1.185 2.054-8.579 15.768-13.346 11.368-1.533-1.41 3.401-7.69 6.126-11.465-3.929 2.158-13.855 13.217-17.404 7.047-.451-.786 6.866-6.487 10.209-8.896Z"/><mask id="y" width="33" height="24" x="154" y="110" maskUnits="userSpaceOnUse" style="mask-type:luminance"><path fill="#fff" d="M165.076 119.099c-1.275.361-2.602.58-3.936.651-1.101.058-2.389-.071-3.001-.921-.696-.96-.065-2.345.966-2.995 1.03-.657 2.332-.799 3.568-1.011 3.124-.535 6.126-1.63 8.786-2.88 2.615-1.539 5.958-1.984 9.018-.998 2.737 2.055 4.715 4.953 5.558 8.174-.637 3.671-3.181 12.399-6.17 12.038-2.551-.309-.193-5.668-.374-10.112-1.185 2.054-8.579 15.768-13.346 11.368-1.533-1.41 3.401-7.69 6.126-11.465-3.929 2.158-13.855 13.217-17.404 7.047-.451-.786 6.866-6.487 10.209-8.896Z"/></mask><g mask="url(#y)"><path stroke="#31343B" stroke-miterlimit="10" stroke-width="2" d="M172.986 109.489c-2.358 1.353-3.421 3.388-4.818 5.591-1.398 2.21-3.852 4.612-6.744 5.218 3.459.206 4.998-.806 11.066.038 3.156.438 5.861.799 8.947.039 3.085-.76 6.248-2.248 7.291-5.037"/></g><path fill="#31343B" d="M25.16 165.302v-21.288c0-5.333 4.328-9.661 9.661-9.661h25.14c5.333 0 9.662 4.328 9.662 9.661v21.288c0 5.334-4.329 9.662-9.662 9.662H34.82c-5.34 0-9.662-4.328-9.662-9.662Z"/><path fill="#708B0A" d="M0 177.933v-30.789c0-5.333 4.328-9.662 9.662-9.662H81.01c5.333 0 9.662 4.329 9.662 9.662v30.789c0 5.333-4.329 9.662-9.662 9.662H9.66a9.66 9.66 0 0 1-9.661-9.662Z"/><path stroke="#31343B" stroke-linecap="round" stroke-miterlimit="10" stroke-width="2" d="m70.512 130.92 5.178-2.01"/><path stroke="#31343B" stroke-linecap="round" stroke-miterlimit="10" stroke-width="3" d="m70.364 133.071 8.284.309"/><path stroke="#31343B" stroke-dasharray="7 7" stroke-miterlimit="10" d="m70.345 134.874 4.496.812"/><path stroke="#31343B" stroke-linecap="round" stroke-miterlimit="10" stroke-width="3" d="m23.337 129.496-7.06-2.203"/><path stroke="#31343B" stroke-dasharray="7 7" stroke-linecap="round" stroke-miterlimit="10" stroke-width="2" d="M23.633 131.236c-2.686-.213-5.372-.425-8.058-.644"/><path stroke="#31343B" stroke-linecap="round" stroke-miterlimit="10" stroke-width="2" d="M23.433 132.704c-1.16.09-2.319.18-3.478.277"/><path fill="#31343B" d="M47.305 81.11c1.372.676 2.499 1.81 3.304 3.124a11.482 11.482 0 0 1 1.526 4.367c.2 1.559.052 3.137-.276 4.65-.335 1.514-.85 2.976-1.418 4.38-.56 1.418-1.159 2.79-1.674 4.168-.529 1.366-.999 2.705-1.366 4.084-.721 2.737-1.024 5.642.27 8.38.026.051.007.109-.044.129a.097.097 0 0 1-.11-.02 7.128 7.128 0 0 1-1.372-1.9c-.328-.721-.592-1.488-.721-2.274-.284-1.578-.2-3.194.09-4.74.283-1.546.824-3.047 1.494-4.426.67-1.371 1.379-2.692 2.016-4.025 1.263-2.648 2.326-5.443 2.145-8.329a10.632 10.632 0 0 0-1.082-4.167c-.657-1.288-1.617-2.46-2.873-3.246-.045-.026-.057-.09-.032-.136a.116.116 0 0 1 .123-.02Zm9.294 11.942c.29.348.54.734.74 1.153.194.419.335.856.445 1.307.206.902.245 1.843.187 2.764-.136 1.861-.767 3.62-1.314 5.281-.264.838-.503 1.669-.657 2.493a22.96 22.96 0 0 0-.374 2.39c-.135 1.591-.064 3.188.87 4.734a.1.1 0 0 1-.032.142c-.026.019-.065.019-.097.006-.876-.386-1.578-1.178-2.003-2.074-.438-.895-.632-1.881-.677-2.86a7.827 7.827 0 0 1 .464-2.853c.322-.889.69-1.72 1.056-2.538.709-1.642 1.469-3.195 1.804-4.863.354-1.65.328-3.459-.573-4.98a.103.103 0 0 1 .032-.134.138.138 0 0 1 .129.032Zm-18.215-1.024c1.475 1.224 2.544 2.937 3.162 4.799.587 1.868.67 3.961.226 5.906-.432 1.926-.98 3.736-1.398 5.372a9.895 9.895 0 0 0-.296 2.532c.025.85.174 1.7.625 2.55a.103.103 0 0 1-.04.136.103.103 0 0 1-.096 0c-.895-.49-1.52-1.45-1.823-2.441-.328-1.005-.373-2.062-.27-3.092.219-2.094 1.275-3.743 1.81-5.456.567-1.688.69-3.485.335-5.269a10.39 10.39 0 0 0-2.358-4.902.093.093 0 0 1 .007-.135c.026-.026.077-.026.116 0Z"/><path stroke="#31343B" stroke-linecap="round" stroke-miterlimit="10" stroke-width="3" d="M111.889 51.706 99.838 40.748"/><path stroke="#31343B" stroke-linecap="round" stroke-miterlimit="10" stroke-width="4" d="m97.01 49.168 14.912 6.158"/><path stroke="#31343B" stroke-dasharray="19 19" stroke-linecap="round" stroke-miterlimit="10" stroke-width="2" d="m97.082 58.32 14.86-.096"/><path stroke="#31343B" stroke-linecap="round" stroke-miterlimit="10" stroke-width="2" d="M171.2 71.022c7.414 3.736 13.437 9.862 16.818 17.108 3.388 7.247 4.11 15.569 2.023 23.24"/><path stroke="#31343B" stroke-linecap="round" stroke-miterlimit="10" stroke-width="2" d="M191.297 88.324c2.583 7.266 2.828 15.259.689 22.654"/><path stroke="#31343B" stroke-miterlimit="10" stroke-width="2" d="m117.114 19.648-1.397-16.476S137.778.756 145.153 1.02c5.945.213 23.517 3.427 23.517 3.427l-2.3 15.201"/><path fill="#FCFAED" d="M118.564 41.02 116.02 3.577s22.338-2.228 29.223-2.157c6.544.064 22.899 3.355 22.899 3.355l-4.251 35.665s-14.075-2.215-19.047-2.06c-6.332.199-26.28 2.64-26.28 2.64Z"/><mask id="z" width="53" height="41" x="116" y="1" maskUnits="userSpaceOnUse" style="mask-type:luminance"><path fill="#fff" d="M118.564 41.02 116.02 3.577s22.338-2.228 29.223-2.157c6.544.064 22.899 3.355 22.899 3.355l-4.251 35.665s-14.075-2.215-19.047-2.06c-6.332.199-26.28 2.64-26.28 2.64Z"/></mask><g stroke="#31343B" stroke-miterlimit="10" stroke-width="2" mask="url(#z)"><path d="M114.538 34.205s21.823-3.02 29.256-3.156c6.525-.122 25.836 2.64 25.836 2.64M120.838-.507l2.57 33.134m4.483-33.926 2.57 33.134m6.441-33.526.599 33.133M145.9-1.691l-2.106 32.334m10.577-32.334-3.568 32.734m11.124-32.142-3.794 33.308"/></g><path stroke="#31343B" stroke-miterlimit="10" stroke-width="2" d="M157.926 42.553c5.423-9.765 10.847-19.536 16.277-29.301"/></svg>