<svg xmlns="http://www.w3.org/2000/svg" width="216" height="198" fill="none"><path fill="#FCFAED" d="M160.485 145.556c7.049-7.264 2.137-33.087-6.277-38.922-4.128-2.863-17.687-1.27-20.279 2.902-5.272 8.496 1.302 40.002 1.302 40.002s21.797-.417 25.254-3.982Z"/><path fill="#708B0A" d="M124.383 74.433c5.993-6.208 9.672 4.349 10.272 2.604 1.511-4.374-3.616-21.07 8.231-23.883 5.165-1.226 9.109 9.546 11.271 25.723.481 3.578 4.406-7.055 6.549-6.271 4.527 1.65 4.767 11.36.531 21.683-4.235 10.323-6.113 13.705-11.6 15.342-.695.208-6.46.695-7.187.6-5.93-.796-13.098-4.715-18.029-14.874-5.019-10.361-3.42-17.422-.038-20.924Z"/><mask id="a" width="44" height="58" x="121" y="53" maskUnits="userSpaceOnUse" style="mask-type:luminance"><path fill="#fff" d="M124.383 74.433c5.993-6.208 9.672 4.349 10.272 2.604 1.511-4.374-3.616-21.07 8.231-23.883 5.165-1.226 9.109 9.546 11.271 25.723.481 3.578 4.406-7.055 6.549-6.271 4.527 1.65 4.767 11.36.531 21.683-4.235 10.323-6.113 13.705-11.6 15.342-.695.208-6.46.695-7.187.6-5.93-.796-13.098-4.715-18.029-14.874-5.019-10.361-3.42-17.422-.038-20.924Z"/></mask><g stroke="#31343B" stroke-linecap="round" stroke-miterlimit="10" stroke-width="2" mask="url(#a)"><path d="M156.212 75.696c-2.902 5.69-5.816 11.404-7.756 17.441-1.941 6.037-2.877 12.466-1.752 18.687m-17.422-42.246c3.92 4.26 5.961 9.729 7.915 15.058 3.161 8.604 6.315 17.207 8.957 25.962m4.274 2.251c1.492-11.67 5-23.105 10.342-33.732"/><path d="M146.104 110.465a601.62 601.62 0 0 1-2.099-48.569m1.922 50.94c-1.208-5.867-5.399-10.721-9.299-15.437-3.9-4.71-7.794-9.906-8.193-15.874"/></g><path fill="#FE95B4" d="m119.724 185.54-11.619-86.01s-51.495 19.413-55.029 27.643c-3.078 7.163 26.316 58.367 26.316 58.367h40.332Z"/><mask id="b" width="68" height="87" x="52" y="99" maskUnits="userSpaceOnUse" style="mask-type:luminance"><path fill="#fff" d="m119.724 185.54-11.619-86.01s-51.495 19.413-55.029 27.643c-3.078 7.163 26.316 58.367 26.316 58.367h40.332Z"/></mask><g mask="url(#b)"><path stroke="#31343B" stroke-miterlimit="10" stroke-width="2" d="M112.909 100.123c-19.116 8.793-46.905 23.118-53.663 30.685-1.953 2.187 15.323 33.706 28.719 47.133"/></g><mask id="c" width="68" height="87" x="52" y="99" maskUnits="userSpaceOnUse" style="mask-type:luminance"><path fill="#fff" d="m119.724 185.54-11.619-86.01s-51.495 19.413-55.029 27.643c-3.078 7.163 26.316 58.367 26.316 58.367h40.332Z"/></mask><g mask="url(#c)"><path stroke="#31343B" stroke-miterlimit="10" stroke-width="2" d="M59.247 130.808s-19.362-13.238-25.665-19.812"/></g><path fill="#31343B" d="M134.358 168.825c5.165-7.82-1.549-40.736-12.005-50.433-6.707-6.227-31.266 2.674-37.992 8.882-10.48 9.672 2.598 37.903 13.408 47.265 8.901 7.706 29.458 5.089 36.589-5.714Z"/><mask id="d" width="57" height="63" x="80" y="116" maskUnits="userSpaceOnUse" style="mask-type:luminance"><path fill="#fff" d="M134.358 168.825c5.165-7.82-1.549-40.736-12.005-50.433-6.707-6.227-31.266 2.674-37.992 8.882-10.48 9.672 2.598 37.903 13.408 47.265 8.901 7.706 29.458 5.089 36.589-5.714Z"/></mask><g stroke="#FCFAED" stroke-miterlimit="10" stroke-width="2" mask="url(#d)"><path d="M128.309 127.272c-15.747 9.192-36.95 9.653-53.145 1.157m59.194 8.832c-6.916 8.799-20.16 13.344-31.741 15.121-11.58 1.776-23.863-.835-33.46-7.099m70.568 2.004c-7.965 8.964-19.281 15.304-31.532 17.681-12.25 2.371-25.355.759-36.52-4.501"/></g><path fill="#FF5D17" d="M66.946 94.97c11.271-10.462 53.183.955 58.202 6.575 3.281 3.673 10.759 29.23 12.776 36.273.297 1.043-.253 2.136-1.315 2.585-.6.253-1.334.563-2.187.917-1.03.423-2.238.126-2.908-.715-5.222-6.593-9.438-13.49-11.733-17.472a5.103 5.103 0 0 0-5.714-2.409l-10.077 2.617a5.144 5.144 0 0 0-3.805 4.337c-.614 4.836-1.58 13.977-1.391 22.549.025 1.125-.854 2.079-2.048 2.25-2.719.379-5.367.607-7.87.626-6.695.063-13.156-4.305-15.387-6.827-12.675-14.325-11.74-46.482-6.543-51.306Z"/><mask id="e" width="76" height="64" x="63" y="90" maskUnits="userSpaceOnUse" style="mask-type:luminance"><path fill="#fff" d="M66.946 94.97c11.271-10.462 53.183.955 58.202 6.575 3.281 3.673 10.759 29.23 12.776 36.273.297 1.043-.253 2.136-1.315 2.585-.6.253-1.334.563-2.187.917-1.03.423-2.238.126-2.908-.715-5.222-6.593-9.438-13.49-11.733-17.472a5.103 5.103 0 0 0-5.714-2.409l-10.077 2.617a5.144 5.144 0 0 0-3.805 4.337c-.614 4.836-1.58 13.977-1.391 22.549.025 1.125-.854 2.079-2.048 2.25-2.719.379-5.367.607-7.87.626-6.695.063-13.156-4.305-15.387-6.827-12.675-14.325-11.74-46.482-6.543-51.306Z"/></mask><g mask="url(#e)"><path fill="#FCFAED" d="M116.456 113.322c.904-.259 1.606-.929 1.846-1.783.797-2.826 2.428-9.191 1.48-10.765-3.167-5.247-16.512-8.933-16.512-11.5 0-1.719-27.802 2.036-27.802 2.036l11.075 8.035s5.784 15.184 10.064 16.727c4.115 1.485 15.753-1.581 19.849-2.75Z"/></g><mask id="f" width="76" height="64" x="63" y="90" maskUnits="userSpaceOnUse" style="mask-type:luminance"><path fill="#fff" d="M66.946 94.97c11.271-10.462 53.183.955 58.202 6.575 3.281 3.673 10.759 29.23 12.776 36.273.297 1.043-.253 2.136-1.315 2.585-.6.253-1.334.563-2.187.917-1.03.423-2.238.126-2.908-.715-5.222-6.593-9.438-13.49-11.733-17.472a5.103 5.103 0 0 0-5.714-2.409l-10.077 2.617a5.144 5.144 0 0 0-3.805 4.337c-.614 4.836-1.58 13.977-1.391 22.549.025 1.125-.854 2.079-2.048 2.25-2.719.379-5.367.607-7.87.626-6.695.063-13.156-4.305-15.387-6.827-12.675-14.325-11.74-46.482-6.543-51.306Z"/></mask><g mask="url(#f)"><path stroke="#31343B" stroke-miterlimit="10" stroke-width="2" d="M134.358 103.618c-16.746-4.103-36.64-5.854-53.986-3.667-2.472.31-4.457 2.036-4.944 4.305-4.14 19.281 3.768 38.536 17.7 62.406"/></g><mask id="g" width="76" height="64" x="63" y="90" maskUnits="userSpaceOnUse" style="mask-type:luminance"><path fill="#fff" d="M66.946 94.97c11.271-10.462 53.183.955 58.202 6.575 3.281 3.673 10.759 29.23 12.776 36.273.297 1.043-.253 2.136-1.315 2.585-.6.253-1.334.563-2.187.917-1.03.423-2.238.126-2.908-.715-5.222-6.593-9.438-13.49-11.733-17.472a5.103 5.103 0 0 0-5.714-2.409l-10.077 2.617a5.144 5.144 0 0 0-3.805 4.337c-.614 4.836-1.58 13.977-1.391 22.549.025 1.125-.854 2.079-2.048 2.25-2.719.379-5.367.607-7.87.626-6.695.063-13.156-4.305-15.387-6.827-12.675-14.325-11.74-46.482-6.543-51.306Z"/></mask><g mask="url(#g)"><path stroke="#31343B" stroke-miterlimit="10" stroke-width="2" d="M136.514 146.377c-5.822-10.538-13.162-25.122-17.549-26.064-4.368-.935-14.489 3.496-14.489 3.496"/></g><mask id="h" width="76" height="64" x="63" y="90" maskUnits="userSpaceOnUse" style="mask-type:luminance"><path fill="#fff" d="M66.946 94.97c11.271-10.462 53.183.955 58.202 6.575 3.281 3.673 10.759 29.23 12.776 36.273.297 1.043-.253 2.136-1.315 2.585-.6.253-1.334.563-2.187.917-1.03.423-2.238.126-2.908-.715-5.222-6.593-9.438-13.49-11.733-17.472a5.103 5.103 0 0 0-5.714-2.409l-10.077 2.617a5.144 5.144 0 0 0-3.805 4.337c-.614 4.836-1.58 13.977-1.391 22.549.025 1.125-.854 2.079-2.048 2.25-2.719.379-5.367.607-7.87.626-6.695.063-13.156-4.305-15.387-6.827-12.675-14.325-11.74-46.482-6.543-51.306Z"/></mask><g mask="url(#h)"><path fill="#31343B" d="M71.2 91.133c2.017.853 5.14 1.82 5.324 4.185 0 0-2.839 22.125-3.87 23.459-2.819 3.654-13.407 1.542-13.407 1.542L71.2 91.133Z"/></g><path fill="#FE95B4" d="M215.368 189.124v-69.689c0-4.659-4.058-8.439-9.058-8.439h-29.661c-2.263 0-4.444.79-6.119 2.213L89.248 182.53c-6.081 5.19-2.162 14.635 6.081 14.66l110.943.366c5.019.026 9.096-3.761 9.096-8.432Z"/><path fill="#FCFAED" d="m155.934 172.922 36.86-38.321c1.663-1.726.835-4.47-1.548-5.146l-14.869-4.229c-1.245-.354-2.598-.019-3.489.86l-37.095 36.639c-1.631 1.612-1.03 4.235 1.163 5.095l15.096 5.911c1.353.531 2.908.208 3.882-.809Z"/><mask id="i" width="60" height="49" x="134" y="125" maskUnits="userSpaceOnUse" style="mask-type:luminance"><path fill="#fff" d="m155.934 172.922 36.86-38.321c1.663-1.726.835-4.47-1.548-5.146l-14.869-4.229c-1.245-.354-2.598-.019-3.489.86l-37.095 36.639c-1.631 1.612-1.03 4.235 1.163 5.095l15.096 5.911c1.353.531 2.908.208 3.882-.809Z"/></mask><g stroke="#31343B" stroke-miterlimit="10" stroke-width="2" mask="url(#i)"><path d="m150.016 170.924 2.276-2.313 4.779-4.855 4.817-4.893 6.815-6.916 6.403-6.505 7.346-7.459 4.646-4.716 7.687-7.807m-50.913 42.803 2.263-2.314 5.045-5.133 4.754-4.836 6.789-6.922 6.183-6.29 7.263-7.403 4.318-4.399 7.453-7.586m-49.428 42.563c.784-.753 1.568-1.511 2.345-2.276a818.006 818.006 0 0 0 5.323-5.203c1.637-1.605 3.262-3.224 4.887-4.842 2.301-2.295 4.589-4.602 6.865-6.916a919.192 919.192 0 0 0 12.864-13.344 825.034 825.034 0 0 0 3.875-4.109 928.066 928.066 0 0 0 6.84-7.384"/><path d="m136.61 161.827 4.248 1.84c1.757.758 3.515 1.523 5.278 2.282 2.049.891 4.103 1.776 6.151 2.661 1.062.462 2.118.923 3.18 1.378m-13.833-13.566c1.524.664 3.041 1.346 4.552 2.035 1.675.765 3.338 1.549 4.994 2.352 1.979.961 3.938 1.941 5.892 2.946.998.518 1.997 1.043 2.99 1.568m-12.985-13.641c1.333.644 2.661 1.289 3.995 1.94 1.618.784 3.243 1.568 4.861 2.358 1.985.961 3.97 1.928 5.955 2.889 1.024.5 2.042.993 3.072 1.486m-7.023-13.655c1.631.816 3.217 1.593 4.785 2.358 2.004.974 3.976 1.916 5.98 2.889 1.012.487 2.029.986 3.06 1.492m-7.641-12.738c1.593.689 3.186 1.372 4.779 2.061 2.067.891 4.134 1.783 6.201 2.68 1.062.455 2.124.917 3.186 1.372m-11.372-14.818a240.838 240.838 0 0 0 9.255 3.376c2.086.815 4.273 1.707 6.29 2.611 1.1.493 2.149.986 3.091 1.466m-17.549-11.947a209.095 209.095 0 0 0 12.485 3.458c2.276.714 4.57 1.498 6.612 2.301a42.53 42.53 0 0 1 3.174 1.384"/><path d="m131.488 162.965 20.342 8.749c.809.347 1.77.17 2.377-.443l1.258-1.277 4.59-4.659 4.899-4.975 6.808-6.909 6.524-6.625 7.251-7.365 4.722-4.798 7.042-7.149"/></g><path fill="#FCFAED" d="M196.537 126.212c2.421-.79 2.667-4.564 1.751-5.424-4.305-4.052-13.427-5.171-16.91-2.889-2.561 1.675-2.15 4.678-.765 5.247 3.211 1.328 11.973 4.362 15.924 3.066Z"/><mask id="j" width="20" height="11" x="179" y="116" maskUnits="userSpaceOnUse" style="mask-type:luminance"><path fill="#fff" d="M196.537 126.212c2.421-.79 2.667-4.564 1.751-5.424-4.305-4.052-13.427-5.171-16.91-2.889-2.561 1.675-2.15 4.678-.765 5.247 3.211 1.328 11.973 4.362 15.924 3.066Z"/></mask><g stroke="#31343B" stroke-miterlimit="10" stroke-width="2" mask="url(#j)"><path d="M197.377 118.6c.689 1.074 1.132 2.339.974 3.584-.158 1.245-.999 2.459-2.257 2.876-1.005.335-2.137.139-3.116-.272-.98-.404-1.853-1.005-2.776-1.51-3.249-1.777-7.2-2.377-10.872-1.65"/><path d="M197.852 123.145c-1.549-1.694-4.432-3.382-7.055-3.913"/><path d="M196.537 118.024c-2.073-.423-4.488.234-5.746 1.208-1.258.973-1.631 2.187-1.941 3.357"/></g><path fill="#31343B" d="M144.308 131.629c2.908.48 10.279-6.954 6.151-9.369-7.131-4.166-24.68-19.748-24.68-19.748s3.161 5.872 7.877 21.019c.721 2.339 1.467 6.58 10.652 8.098Z"/><mask id="k" width="27" height="30" x="125" y="102" maskUnits="userSpaceOnUse" style="mask-type:luminance"><path fill="#fff" d="M144.308 131.629c2.908.48 10.279-6.954 6.151-9.369-7.131-4.166-24.68-19.748-24.68-19.748s3.161 5.872 7.877 21.019c.721 2.339 1.467 6.58 10.652 8.098Z"/></mask><g stroke="#FCFAED" stroke-miterlimit="10" stroke-width="2" mask="url(#k)"><path d="M145.965 115.218c-4.564-.619-9.419 1.05-12.447 4.286-3.022 3.237-4.122 7.934-2.813 12.037m8.932-22.764c-3.894-.051-7.782 1.574-10.323 4.317-2.541 2.744-3.679 6.556-3.034 10.121"/></g><path fill="#FF5D17" d="m145.515 118.278 22.22 9.837-.461.48c.221-.051.442-.101.664-.133 5.246-.815 10.854.664 14.855 3.92.556.448 1.113 1.005 1.151 1.687.025.55-.512 1.107-1.05 1.119 1.069.38 1.732 1.625 1.309 2.63-.474 1.119-2.162 1.599-3.73 1.347.733.568 1.486 1.156 1.909 1.947.424.79.424 1.852-.253 2.471-.929.854-2.484.468-3.691 0-3.186-1.232-10.203-4.874-10.703-4.235-.651.834 4.387 4.134 4.027 5.108-.619 1.675-6.562-.449-9.223-4.558l.063.594-24.268-10.468-.531-5.702 7.712-6.044Z"/><mask id="l" width="48" height="28" x="137" y="118" maskUnits="userSpaceOnUse" style="mask-type:luminance"><path fill="#fff" d="m145.515 118.278 22.22 9.837-.461.48c.221-.051.442-.101.664-.133 5.246-.815 10.854.664 14.855 3.92.556.448 1.113 1.005 1.151 1.687.025.55-.512 1.107-1.05 1.119 1.069.38 1.732 1.625 1.309 2.63-.474 1.119-2.162 1.599-3.73 1.347.733.568 1.486 1.156 1.909 1.947.424.79.424 1.852-.253 2.471-.929.854-2.484.468-3.691 0-3.186-1.232-10.203-4.874-10.703-4.235-.651.834 4.387 4.134 4.027 5.108-.619 1.675-6.562-.449-9.223-4.558l.063.594-24.268-10.468-.531-5.702 7.712-6.044Z"/></mask><g stroke="#31343B" stroke-miterlimit="10" stroke-width="2" mask="url(#l)"><path d="M170.669 127.426c-3.249.923-6.745 2.238-8.275 5.057-1.119 2.061-.935 4.526-.322 6.758.613 2.231 1.618 4.368 2.092 6.631"/><path d="M174.805 127.906c6.89 1.732 3.192 5.102.973 7.788-2.219 2.687-3.584 5.026-6.934 3.755-2.769-.556-5.165-1.713-7.529-3.382-10.583-4.046-22.581-10.98-32.474-16.322"/><path d="M186.839 138.804c-.898-1.587-2.472-2.775-4.197-3.585-1.726-.809-2.934-1.599-4.798-2.067m8.118 11.292c-2.604-3.603-6.555-6.353-11.012-7.668"/></g><path fill="#31343B" d="M111.481 96.267c2.775-2.573 0-14.552 0-14.552h-28.27s-2.124 8.913.341 11.745c4.444 5.095 22.928 7.441 27.929 2.807Z"/><mask id="m" width="31" height="18" x="82" y="81" maskUnits="userSpaceOnUse" style="mask-type:luminance"><path fill="#fff" d="M111.481 96.267c2.775-2.573 0-14.552 0-14.552h-28.27s-2.124 8.913.341 11.745c4.444 5.095 22.928 7.441 27.929 2.807Z"/></mask><g mask="url(#m)"><path stroke="#FCFAED" stroke-miterlimit="10" stroke-width="2" d="M116.185 92.979c-6.417 2.446-13.718 2.851-20.406 1.138-6.688-1.713-12.725-5.544-16.885-10.696"/></g><path fill="#FF5D17" d="m125.774 85.374-.284-20.52c-.013-.967-.462-1.884-1.233-2.535l-6.511-5.487a3.916 3.916 0 0 0-1.271-.708l-24.477-8.06c-1.624-.537-3.432.026-4.387 1.353L69.784 74.286c-1.276 1.776-.543 4.191 1.543 5.095l34.168 14.792a4.021 4.021 0 0 0 2.996.076l14.938-5.588c1.435-.544 2.37-1.846 2.345-3.287Z"/><mask id="n" width="57" height="48" x="69" y="47" maskUnits="userSpaceOnUse" style="mask-type:luminance"><path fill="#fff" d="m125.774 85.374-.284-20.52c-.013-.967-.462-1.884-1.233-2.535l-6.511-5.487a3.916 3.916 0 0 0-1.271-.708l-24.477-8.06c-1.624-.537-3.432.026-4.387 1.353L69.784 74.286c-1.276 1.776-.543 4.191 1.543 5.095l34.168 14.792a4.021 4.021 0 0 0 2.996.076l14.938-5.588c1.435-.544 2.37-1.846 2.345-3.287Z"/></mask><g mask="url(#n)"><path stroke="#31343B" stroke-miterlimit="10" stroke-width="2" d="m118.845 50.435-14.571 54.46"/><path fill="#31343B" d="m101.284 102.354 1.22-20.147c.088-1.435-.784-2.775-2.194-3.37l-18.32-7.75c-1.53-.644-3.331-.271-4.418.911L59.246 91.961l42.038 10.393Z"/><mask id="o" width="44" height="33" x="59" y="70" maskUnits="userSpaceOnUse" style="mask-type:luminance"><path fill="#fff" d="m101.284 102.354 1.22-20.147c.088-1.435-.784-2.775-2.194-3.37l-18.32-7.75c-1.53-.644-3.331-.271-4.418.911L59.246 91.961l42.038 10.393Z"/></mask><g mask="url(#o)"><path fill="#FCFAED" d="m102.523 101.804 1.22-19.533c.088-1.391-.778-2.693-2.181-3.269l-18.237-7.516c-1.524-.626-3.32-.265-4.4.885L60.687 91.728l41.836 10.076Z"/></g></g><mask id="p" width="57" height="48" x="69" y="47" maskUnits="userSpaceOnUse" style="mask-type:luminance"><path fill="#fff" d="m125.774 85.374-.284-20.52c-.013-.967-.462-1.884-1.233-2.535l-6.511-5.487a3.916 3.916 0 0 0-1.271-.708l-24.477-8.06c-1.624-.537-3.432.026-4.387 1.353L69.784 74.286c-1.276 1.776-.543 4.191 1.543 5.095l34.168 14.792a4.021 4.021 0 0 0 2.996.076l14.938-5.588c1.435-.544 2.37-1.846 2.345-3.287Z"/></mask><g fill="#31343B" mask="url(#p)"><path d="M101.271 81.063c.228-.974-.309-1.966-1.283-2.383l-4.918-2.093c-1.144-.487-2.49.089-2.832 1.22-.246.822.158 1.688.974 2.086l5.107 2.46c1.201.575 2.668-.064 2.952-1.29ZM90.19 76.38c.228-.974-.31-1.967-1.283-2.384l-4.918-2.093c-1.144-.486-2.49.089-2.832 1.22-.246.822.158 1.688.974 2.087l5.107 2.459c1.201.575 2.662-.064 2.952-1.29Z"/></g><path fill="#FF5D17" d="m72.882 112.532 3.407-16c.45-2.092-.904-4.16-3.11-4.76l-13.408-3.635a4.78 4.78 0 0 0-1.302-.164l-4.59.057c-2.25.025-4.121 1.612-4.361 3.686l-1.815 15.772c-.177 1.567.614 3.091 2.049 3.925l6.403 3.743a4.71 4.71 0 0 0 2.333.632l10 .063c2.137.019 3.983-1.378 4.394-3.319Z"/><mask id="q" width="30" height="29" x="47" y="87" maskUnits="userSpaceOnUse" style="mask-type:luminance"><path fill="#fff" d="m72.882 112.532 3.407-16c.45-2.092-.904-4.16-3.11-4.76l-13.408-3.635a4.78 4.78 0 0 0-1.302-.164l-4.59.057c-2.25.025-4.121 1.612-4.361 3.686l-1.815 15.772c-.177 1.567.614 3.091 2.049 3.925l6.403 3.743a4.71 4.71 0 0 0 2.333.632l10 .063c2.137.019 3.983-1.378 4.394-3.319Z"/></mask><g stroke="#31343B" stroke-miterlimit="10" stroke-width="2" mask="url(#q)"><path d="M55.902 119.675a182.887 182.887 0 0 0 7.288-24.426c.12-.525-.133-1.062-.625-1.34-5.829-3.338-11.664-6.676-17.492-10.014"/><path d="M84.04 94.927c-5.557-.663-15.343-1.011-20.906-.373"/></g><path fill="#31343B" d="M60.574 89.745c-8.351-7.75-22.435-28.232-22.435-28.232s-13.7 2.762-13.863 7.61c-.171 5.014 19.103 41.874 27.536 41.874 6.132 0 13.237-17.1 8.762-21.252Z"/><mask id="r" width="38" height="50" x="24" y="61" maskUnits="userSpaceOnUse" style="mask-type:luminance"><path fill="#fff" d="M60.574 89.745c-8.351-7.75-22.435-28.232-22.435-28.232s-13.7 2.762-13.863 7.61c-.171 5.014 19.103 41.874 27.536 41.874 6.132 0 13.237-17.1 8.762-21.252Z"/></mask><g stroke="#FCFAED" stroke-miterlimit="10" stroke-width="2" mask="url(#r)"><path d="M47.09 69.87c-1.593 3.855-4.918 7.06-9.008 8.691-4.09 1.631-8.882 1.656-12.997.076m26.86-1.46c-3.337 9.368-13.136 16.442-23.743 17.131m26.886-12.934c.215 5.297-2.03 10.645-6.05 14.413-4.02 3.768-9.754 5.911-15.462 5.772"/></g><path fill="#FF5D17" d="M7.34 10.832c4.912-.677 13.908 5.746 18.301 7.89 4.394 2.142 8.054 5.36 11.644 8.54-3.445 5.082-6.48 10.31-9.311 15.62l.152.006 17.093 26.683-12.719 6.84-7.788-1.764-12.308-32.39.973.037c-.107-.082-.214-.17-.322-.26-4.962-3.35-8.325-6.359-9.299-14.134C2.96 23.292 1.76 11.603 7.34 10.832Z"/><mask id="s" width="43" height="67" x="3" y="10" maskUnits="userSpaceOnUse" style="mask-type:luminance"><path fill="#fff" d="M7.34 10.832c4.912-.677 13.908 5.746 18.301 7.89 4.394 2.142 8.054 5.36 11.644 8.54-3.445 5.082-6.48 10.31-9.311 15.62l.152.006 17.093 26.683-12.719 6.84-7.788-1.764-12.308-32.39.973.037c-.107-.082-.214-.17-.322-.26-4.962-3.35-8.325-6.359-9.299-14.134C2.96 23.292 1.76 11.603 7.34 10.832Z"/></mask><g stroke="#31343B" stroke-miterlimit="10" stroke-width="2" mask="url(#s)"><path d="M31.084 40.373c-2.718 3.616-8.053 4.968-12.725 4.14C8.669 42.781-3.54 25.751-3.54 25.751"/><path d="M37.861 84.344C29.556 71.651 22.767 58.787 18.36 44.513m-4.925-25.369c-1.46-1.631-4.811-3.186-7.238-3.61m4.386 17.106c-2.15 1.265-5.013 1.404-7.295.355m22.322-9.52c.278 1.681 1.226 3.268 2.623 4.368 1.398 1.1 3.23 1.726 5.064 1.713"/></g><path fill="#FE95B4" d="m26.804 36.599 7.56-28.624c.298-1.126-.391-2.276-1.58-2.636L15.629.11c-1.378-.417-2.845.385-3.098 1.713L6.892 30.75c-.209 1.075.455 2.13 1.567 2.49l15.235 4.919c1.334.436 2.775-.29 3.11-1.561Z"/><path stroke="#31343B" stroke-miterlimit="10" stroke-width="2" d="m25.597 35.593 6.979-27.776c.139-.544-.203-1.087-.778-1.252l-16.6-4.646c-.651-.183-1.321.202-1.441.822L8.484 30.227c-.094.505.215 1.005.734 1.182l14.887 4.93c.651.215 1.34-.139 1.492-.745Z"/><path fill="#FF5D17" d="M37.234 28.191c-.069-1.846-1.523-3.388-3.078-4.538-1.555-1.151-3.325-2.112-4.507-3.598-.455-.575-.822-1.22-1.378-1.713-.557-.493-1.41-.796-2.105-.499-.886.373-1.088 1.441-1.075 2.345.031 2.8 1.056 5.683 3.287 7.567 2.225 1.89 5.765 2.529 8.856.436Zm-23.749-2.522c1.656-.31 2.504-2.288 2.15-3.42-.355-1.132-1.271-2.035-2.226-2.807a21.523 21.523 0 0 0-5.183-3.091c-.892-.373-1.853-.695-2.82-.588-1.896.215-3.154 2.03-3.413 3.787-.184 1.264 0 2.566-.285 3.812-.404 1.789-1.757 3.394-1.707 5.221.051 1.84 1.606 3.44 3.446 4.128 1.84.69 3.913.62 5.872.316.828-.126 1.675-.31 2.34-.784.663-.474 1.08-1.32.79-2.048 1.024.474 2.3-.5 2.389-1.561.196-2.409-1.505-1.732-1.353-2.965Z"/><mask id="t" width="16" height="19" x="0" y="15" maskUnits="userSpaceOnUse" style="mask-type:luminance"><path fill="#fff" d="M13.485 25.669c1.656-.31 2.504-2.288 2.15-3.42-.355-1.132-1.271-2.035-2.226-2.807a21.523 21.523 0 0 0-5.183-3.091c-.892-.373-1.853-.695-2.82-.588-1.896.215-3.154 2.03-3.413 3.787-.184 1.264 0 2.566-.285 3.812-.404 1.789-1.757 3.394-1.707 5.221.051 1.84 1.606 3.44 3.446 4.128 1.84.69 3.913.62 5.872.316.828-.126 1.675-.31 2.34-.784.663-.474 1.08-1.32.79-2.048 1.024.474 2.3-.5 2.389-1.561.196-2.409-1.505-1.732-1.353-2.965Z"/></mask><g stroke="#31343B" stroke-miterlimit="10" stroke-width="2" mask="url(#t)"><path d="M17.178 25.069C9.478 25.39 2.31 22.956 2.31 11.4"/><path d="M16.805 30.08C10.06 30.63 1.456 29.006.969 18.095"/></g><path stroke="#31343B" stroke-linecap="round" stroke-miterlimit="10" stroke-width="3" d="m67.129 65.892-6.998-12.295"/><path stroke="#31343B" stroke-linecap="round" stroke-miterlimit="10" stroke-width="4" d="m55.403 60.096 10.734 8.894"/><path stroke="#31343B" stroke-dasharray="19 19" stroke-linecap="round" stroke-miterlimit="10" stroke-width="2" d="m52.893 67.929 12.454 3.54"/><path stroke="#31343B" stroke-linecap="round" stroke-miterlimit="10" stroke-width="3" d="M37.854 108.771c-4.785 2.049-7.781 7.283-6.966 12.182.329 1.979 1.536 4.122 3.635 4.463 2.307.379 4.475-2.099 3.83-4.223-.644-2.124-3.584-3.211-5.695-2.25-2.067.935-3.022 3.192-3.49 5.304-1.238 5.569-.297 11.536 2.599 16.53"/></svg>