<svg xmlns="http://www.w3.org/2000/svg" width="222" height="158" fill="none"><path fill="#31343B" d="M21.771 147.759V90.566c0-1.078.88-1.958 1.958-1.958h.832c1.078 0 1.957.88 1.957 1.958v57.193a1.961 1.961 0 0 1-1.957 1.958h-.832a1.954 1.954 0 0 1-1.957-1.958Z"/><path fill="#FCFAED" d="M0 111.296v-.494a1.11 1.11 0 0 1 1.108-1.109h62.085a1.11 1.11 0 0 1 1.108 1.109v.494a1.11 1.11 0 0 1-1.108 1.108H1.108A1.105 1.105 0 0 1 0 111.296Z"/><mask id="a" width="65" height="4" x="0" y="109" maskUnits="userSpaceOnUse" style="mask-type:luminance"><path fill="#fff" d="M0 111.296v-.494a1.11 1.11 0 0 1 1.108-1.109h62.085a1.11 1.11 0 0 1 1.108 1.109v.494a1.11 1.11 0 0 1-1.108 1.108H1.108A1.105 1.105 0 0 1 0 111.296Z"/></mask><g stroke="#31343B" stroke-linecap="round" stroke-miterlimit="10" stroke-width="2" mask="url(#a)"><path d="M28.712 107.284v6.819m3.385-6.819v9.868"/></g><path fill="#31343B" d="M49.809 88.88h-1.097c-2.217 0-4.018 1.68-4.018 3.753 0-2.072-1.801-3.753-4.018-3.753H39.58c-2.217 0-4.018 1.68-4.018 3.753v36.837c0 2.072 1.8 3.753 4.018 3.753h1.096c2.217 0 4.018-1.681 4.018-3.753 0 2.072 1.801 3.753 4.018 3.753h1.096c2.217 0 4.019-1.681 4.019-3.753V92.633c0-2.072-1.802-3.753-4.018-3.753Z"/><mask id="b" width="19" height="46" x="35" y="88" maskUnits="userSpaceOnUse" style="mask-type:luminance"><path fill="#fff" d="M49.809 88.88h-1.097c-2.217 0-4.018 1.68-4.018 3.753 0-2.072-1.801-3.753-4.018-3.753H39.58c-2.217 0-4.018 1.68-4.018 3.753v36.837c0 2.072 1.8 3.753 4.018 3.753h1.096c2.217 0 4.018-1.681 4.018-3.753 0 2.072 1.801 3.753 4.018 3.753h1.096c2.217 0 4.019-1.681 4.019-3.753V92.633c0-2.072-1.802-3.753-4.018-3.753Z"/></mask><g mask="url(#b)"><path stroke="#FCFAED" stroke-linecap="round" stroke-miterlimit="10" stroke-width="2" d="M44.693 86.043v51.235"/></g><path fill="#FFD318" d="M83.904 104.061V87.38l66.018 2.91 1.067 13.771H83.904Z"/><mask id="c" width="68" height="18" x="83" y="87" maskUnits="userSpaceOnUse" style="mask-type:luminance"><path fill="#fff" d="M83.904 104.061V87.38l66.018 2.91 1.067 13.771H83.904Z"/></mask><g mask="url(#c)"><path stroke="#31343B" stroke-miterlimit="10" stroke-width="2" d="M158.362 92.025c-13.795 1.18-21.133-.205-41.566-.891-.567-1.169-1.103-3.392-1.669-4.567"/></g><path fill="#31343B" d="M142.423 77.103c-8.006 1.416-26.922-19.127-26.922-19.127l5.09-9.066s19.627 8.024 21.838 14.687c2.367 7.157 3.476 12.891-.006 13.506Z"/><mask id="d" width="30" height="30" x="115" y="48" maskUnits="userSpaceOnUse" style="mask-type:luminance"><path fill="#fff" d="M142.423 77.103c-8.006 1.416-26.922-19.127-26.922-19.127l5.09-9.066s19.627 8.024 21.838 14.687c2.367 7.157 3.476 12.891-.006 13.506Z"/></mask><g stroke="#FCFAED" stroke-miterlimit="10" stroke-width="2" mask="url(#d)"><path d="M124.56 49.085c1.898 2.837 2.783 6.265 2.476 9.608-.307 3.344-1.795 6.579-4.181 9.073m10.2-16.236c4.066 6.874 3.338 15.988-1.771 22.211"/></g><path fill="#708B0A" d="M140.923 77.175c3.91-4.856-2.572-17.115-1.066-17.934 1.216-.669 8.162 2.669 8.162 2.669l-2.662 18.512c.006 0-5.856-1.482-4.434-3.247Z"/><mask id="e" width="10" height="22" x="139" y="59" maskUnits="userSpaceOnUse" style="mask-type:luminance"><path fill="#fff" d="M140.923 77.175c3.91-4.856-2.572-17.115-1.066-17.934 1.216-.669 8.162 2.669 8.162 2.669l-2.662 18.512c.006 0-5.856-1.482-4.434-3.247Z"/></mask><g mask="url(#e)"><path stroke="#31343B" stroke-miterlimit="10" stroke-width="2" d="M147.036 60.151c-2.482 1.476-3.663 4.76-4.036 7.494a73.885 73.885 0 0 0-.464 15.44"/></g><path fill="#708B0A" d="M121.144 148.459c-.813-12.566 37.94-32.102 37.94-32.102l28.042-2.337 18.103 43.704c.006 0-83.313 2.657-84.085-9.265Z"/><mask id="f" width="85" height="44" x="121" y="114" maskUnits="userSpaceOnUse" style="mask-type:luminance"><path fill="#fff" d="M121.144 148.459c-.813-12.566 37.94-32.102 37.94-32.102l28.042-2.337 18.103 43.704c.006 0-83.313 2.657-84.085-9.265Z"/></mask><g stroke="#31343B" stroke-miterlimit="10" stroke-width="2" mask="url(#f)"><path d="M185.217 121.115c2.018 5.428 4.036 10.85 6.048 16.277m-56.47 10.79c12.229-7.772 17.885-11.302 28.458-16.675"/><path d="M187.837 118.194c-5.349 6.783-12.223 13.814-21.205 13.958-4.813.078-8.006-3.132-10.307-7.217 5.898-2.753 9.994-2.253 31.512-6.741Zm-39.632 2.717c.066.723.277 1.38.868 2.006-.464.265-.621.747-.482 1.241.614 2.163 3.439 1.982 6.361.651"/></g><mask id="g" width="85" height="44" x="121" y="114" maskUnits="userSpaceOnUse" style="mask-type:luminance"><path fill="#fff" d="M121.144 148.459c-.813-12.566 37.94-32.102 37.94-32.102l28.042-2.337 18.103 43.704c.006 0-83.313 2.657-84.085-9.265Z"/></mask><g mask="url(#g)"><path fill="#31343B" d="M168.603 143.291c-1.102-3.41-1.898-7.579-1.97-11.139-3.831.241-6.15-1.855-8.223-4.289-2.072-2.434-3.385-5.344-4.825-7.735-.337 3.422 1.675 6.632 3.783 9.44 2.109 2.807 4.47 5.656 5.012 9.054.181 1.144.145 2.313.271 3.47.127 1.156.44 2.331 1.211 3.235.771.903 2.097 1.464 3.277 1.12 1.181-.343 1.916-1.765 1.464-3.156Z"/></g><path fill="#31343B" d="M160.7 120.808c-7.946-4.711-18.392-28.32-11.362-34.53 6.681-5.904 36.386 4.337 36.386 4.337l.355 24.187s-19.916 9.247-25.379 6.006Z"/><mask id="h" width="40" height="38" x="147" y="84" maskUnits="userSpaceOnUse" style="mask-type:luminance"><path fill="#fff" d="M160.7 120.808c-7.946-4.711-18.392-28.32-11.362-34.53 6.681-5.904 36.386 4.337 36.386 4.337l.355 24.187s-19.916 9.247-25.379 6.006Z"/></mask><g mask="url(#h)"><path stroke="#FCFAED" stroke-miterlimit="10" stroke-width="2" d="M145.224 104.723c7.566 4.374 16.59 6.47 25.457 5.928 8.862-.542 17.518-3.735 24.416-8.994"/></g><path fill="#708B0A" d="M182.464 68.404c-5.446-7.662-30.211-13.566-36.916-6.674-3.379 3.47-3.686 17.97-2.469 25.331 1.247 7.578 6.234 14.723 6.234 17.217 0 4.554-1.048-8.603 15.47 5.307 5.44-.138 19.958-2.283 21.591-6.15 2.879-6.856 2.692-25.741-3.91-35.03Z"/><mask id="i" width="47" height="52" x="142" y="58" maskUnits="userSpaceOnUse" style="mask-type:luminance"><path fill="#fff" d="M182.464 68.404c-5.446-7.662-30.211-13.566-36.916-6.674-3.379 3.47-3.686 17.97-2.469 25.331 1.247 7.578 6.234 14.723 6.234 17.217 0 4.554-1.048-8.603 15.47 5.307 5.44-.138 19.958-2.283 21.591-6.15 2.879-6.856 2.692-25.741-3.91-35.03Z"/></mask><g stroke="#31343B" stroke-miterlimit="10" stroke-width="2" mask="url(#i)"><path d="M143.345 95.621c.066 1.868 2.259 3.055 4.241 3.193 1.982.139 3.982-.38 5.951-.132 3.037.38 5.47 2.463 8.187 3.795 5.41 2.644 12.066 2.223 17.729.09 5.657-2.132 10.494-5.807 15.066-9.596"/><path d="M142.778 89.948c.067 1.867 2.259 3.054 4.241 3.192 1.982.139 3.982-.38 5.952-.132 3.036.38 5.47 2.464 8.187 3.795 5.409 2.645 12.066 2.223 17.729.09 5.656-2.132 10.494-5.807 15.066-9.596M181.851 66.7c-4.928-1.47-7.452 3.77-7.603 7.728-.458 11.988 4.542 12.832 5.916 12.476m-7.85 22.68c4.591-1.969 8.386-3.608 12.223-5.018"/></g><path fill="#31343B" d="M185.82 109.922c-5.41-4.108-8.043-21.096-5.681-27.192 1.03-2.657 7.97-3.525 9.723-2.109 4.391 3.542 6.361 23.56 3.903 29.633-1.584 3.927-5.602 1.445-7.945-.332Z"/><mask id="j" width="16" height="34" x="179" y="79" maskUnits="userSpaceOnUse" style="mask-type:luminance"><path fill="#fff" d="M185.82 109.922c-5.41-4.108-8.043-21.096-5.681-27.192 1.03-2.657 7.97-3.525 9.723-2.109 4.391 3.542 6.361 23.56 3.903 29.633-1.584 3.927-5.602 1.445-7.945-.332Z"/></mask><g stroke="#FCFAED" stroke-miterlimit="10" stroke-width="2" mask="url(#j)"><path d="M174.699 89.597c7.079 1.247 14.777-1.404 19.32-6.657m-17.597 13.157c7.078 1.247 14.777-1.404 19.319-6.657m-18.289 12.929c6.747 1.741 14.476-.536 18.952-5.59"/></g><path fill="#708B0A" d="M177.934 86.085c-3.247-2.53-4.421-12.096-1.777-16.68.82-1.416 2.916-2.898 4.615-2.705 8.976 1.03 11.361 9.608 11.361 14.048 0 3.644-11.06 7.777-14.199 5.337Z"/><mask id="k" width="19" height="21" x="174" y="66" maskUnits="userSpaceOnUse" style="mask-type:luminance"><path fill="#fff" d="M177.934 86.085c-3.247-2.53-4.421-12.096-1.777-16.68.82-1.416 2.916-2.898 4.615-2.705 8.976 1.03 11.361 9.608 11.361 14.048 0 3.644-11.06 7.777-14.199 5.337Z"/></mask><g mask="url(#k)"><path stroke="#31343B" stroke-miterlimit="10" stroke-width="2" d="M177.524 65.488c4.35 1.783 7.482 5.573 9.308 9.693 1.825 4.115 2.512 8.59 3.174 13.006"/></g><path fill="#708B0A" d="M194.542 108.296c-.807-1.079-7.343-4.296-9.554-3.494-6.886 2.488-19.47 7.897-21.988 8.981-2.344-1.945-7.223-3.903-10.084-2.825-.145.825.349 2.181.686 2.964-.072.235-3.271-.217-4.421.018-2.47.506-1.145 2.747 0 4.343-1.88 1.175-.898 3.037.132 4.332-1.434 1.572.44 2.687 1.946 3.114 3.56-.783 9.193-2.5 11.831-3.247 7.765-2.199 25.428-3.482 27.048-5.168 1.157-1.217 5.235-7.904 4.404-9.018Z"/><mask id="l" width="48" height="22" x="147" y="104" maskUnits="userSpaceOnUse" style="mask-type:luminance"><path fill="#fff" d="M194.542 108.296c-.807-1.079-7.343-4.296-9.554-3.494-6.886 2.488-19.47 7.897-21.988 8.981-2.344-1.945-7.223-3.903-10.084-2.825-.145.825.349 2.181.686 2.964-.072.235-3.271-.217-4.421.018-2.47.506-1.145 2.747 0 4.343-1.88 1.175-.898 3.037.132 4.332-1.434 1.572.44 2.687 1.946 3.114 3.56-.783 9.193-2.5 11.831-3.247 7.765-2.199 25.428-3.482 27.048-5.168 1.157-1.217 5.235-7.904 4.404-9.018Z"/></mask><g stroke="#31343B" stroke-miterlimit="10" stroke-width="2" mask="url(#l)"><path d="M164.29 119.115c15.349-2.94 22.566-5.175 33.41-12.946"/><path d="M153.139 127.018c-.198-4.657-.614-8.645-1.132-13.566 4.566.385 7.072-.832 10.349-.253 1.506.765 1.741 4.313 1.94 5.909.452 3.603-4.072 5.061-4.072 5.061"/><path d="M147.006 116.651c1.193 1.657 3.47 2.561 5.566 2.205m-5.578 2.885c1.603 1.392 4.024 1.898 6.109 1.265"/></g><path fill="#FCFAED" d="M164.753 59.807c4.331 7.145-3.138 16.085.952 22.422.307.476.964.609 1.47.32.807-.459 2.421-1.392 2.705-.585 1.554 4.428 7.325-.602 7.078-1.898-.518-2.674-2.446-4.963-2.584-7.698-.151-2.898.174-5.82-.223-8.7-.398-2.879-1.651-5.83-4.211-7.457-2.482-1.572-5.711-1.614-8.681-1.506a89.243 89.243 0 0 0-6.464.482c-3.723.404-8.59.988-10.783 4.187-5.921 8.632 2.862 6.457 3.982 20.68.175 2.23 1.331 7.326 3.187 8.205.807.38 4.518-2.82 6.596-1.837.934.44 5.735.578 5.5-1.91-.09-.982-.915-1.735-1.94-1.952-3.487-.722-4.03-4.903-4.5-7.951-.933-6-3.975-6.326-5.445-8.79-.699-1.168.307-6.385 2.439-6.8 2.121-.41 4.314.24 10.922.788Z"/><mask id="m" width="36" height="35" x="141" y="54" maskUnits="userSpaceOnUse" style="mask-type:luminance"><path fill="#fff" d="M164.753 59.807c4.331 7.145-3.138 16.085.952 22.422.307.476.964.609 1.47.32.807-.459 2.421-1.392 2.705-.585 1.554 4.428 7.325-.602 7.078-1.898-.518-2.674-2.446-4.963-2.584-7.698-.151-2.898.174-5.82-.223-8.7-.398-2.879-1.651-5.83-4.211-7.457-2.482-1.572-5.711-1.614-8.681-1.506a89.243 89.243 0 0 0-6.464.482c-3.723.404-8.59.988-10.783 4.187-5.921 8.632 2.862 6.457 3.982 20.68.175 2.23 1.331 7.326 3.187 8.205.807.38 4.518-2.82 6.596-1.837.934.44 5.735.578 5.5-1.91-.09-.982-.915-1.735-1.94-1.952-3.487-.722-4.03-4.903-4.5-7.951-.933-6-3.975-6.326-5.445-8.79-.699-1.168.307-6.385 2.439-6.8 2.121-.41 4.314.24 10.922.788Z"/></mask><g stroke="#31343B" stroke-miterlimit="10" stroke-width="2" mask="url(#m)"><path d="M171.713 84.597c-1.356-.416-2.097-1.85-2.151-3.187-.048-1.337.428-2.639.777-3.94.343-1.301.548-2.717-.024-3.946m-12.103 13.452c-2.482-1.518-4.344-3.904-5.133-6.584m1.452-12.519c-2.422-.765-4.596-2.217-6.163-4.12-.433-.524-.831-1.12-.891-1.783-.06-.663.331-1.404 1.018-1.572m13.506-1.79c1.982.217 3.861 1.187 5.114 2.645 1.253 1.458 1.874 3.391 1.681 5.259"/></g><path fill="#FFD318" d="M77.947 100.753s-13.735-22.109-11.362-35.53c.53-2.988 33.578-.645 40.717-.103.795.06 1.446.609 1.596 1.344 1.024 4.91 5.145 23.15 11.464 31.289 6.271 8.072-42.415 3-42.415 3Z"/><mask id="n" width="55" height="40" x="66" y="63" maskUnits="userSpaceOnUse" style="mask-type:luminance"><path fill="#fff" d="M77.947 100.753s-13.735-22.109-11.362-35.53c.53-2.988 33.578-.645 40.717-.103.795.06 1.446.609 1.596 1.344 1.024 4.91 5.145 23.15 11.464 31.289 6.271 8.072-42.415 3-42.415 3Z"/></mask><g stroke="#31343B" stroke-miterlimit="10" stroke-width="2" mask="url(#n)"><path d="M105.537 61.23c1.434 15.367 5.265 26 10.259 34.65"/><path d="M66.309 90.254c28.06-1.795 45.554.289 54.307 1.313"/></g><path fill="#FFD318" d="M64.656 105.453c-3.602-1.531-5.006-10.94-2.957-13.03 2.072-2.121 24.807-3.211 62.331-.627 39.446 2.717 78.59 2.295 78.59 2.295s2.603.41-1.422 13.675c-.777 2.56-57.198 3.909-73.018 3.909-1.234 0-14.162 28.259-15.222 28.862 0 0-11.964.837-19.5.169-1.006-.091 18.006-29.874 16.982-29.964-7.886-.717-21.464-2.03-29.35-2.91-1.102-.12-18.554 32.428-19.596 32.554-5.229.639-8.705.994-12.145.175-.897-.211 20.097-34.253 19.29-34.482-1.567-.446-2.796-.126-3.983-.626Z"/><mask id="o" width="155" height="52" x="49" y="90" maskUnits="userSpaceOnUse" style="mask-type:luminance"><path fill="#fff" d="M64.656 105.453c-3.602-1.531-5.006-10.94-2.957-13.03 2.072-2.121 24.807-3.211 62.331-.627 39.446 2.717 78.59 2.295 78.59 2.295s2.603.41-1.422 13.675c-.777 2.56-57.198 3.909-73.018 3.909-1.234 0-14.162 28.259-15.222 28.862 0 0-11.964.837-19.5.169-1.006-.091 18.006-29.874 16.982-29.964-7.886-.717-21.464-2.03-29.35-2.91-1.102-.12-18.554 32.428-19.596 32.554-5.229.639-8.705.994-12.145.175-.897-.211 20.097-34.253 19.29-34.482-1.567-.446-2.796-.126-3.983-.626Z"/></mask><g stroke="#31343B" stroke-miterlimit="10" mask="url(#o)"><path stroke-width="2" d="M121.464 87.481c2.765 7.91 2.398 16.886-1.626 24.308"/><path stroke-width="8" d="M59.94 106.066c28.657 4.669 53.037 7.145 77.675 7.145"/><path stroke-width="2" d="M76.295 107.548c-3.927 9.217-15.422 28.656-20.476 37.373m67.446-32.987c-4.657 9.536-9.139 18.656-13.795 28.192"/></g><path stroke="#31343B" stroke-linecap="round" stroke-miterlimit="10" stroke-width="5" d="M178.139 33.422a189.138 189.138 0 0 1 40.698-.26"/><path stroke="#31343B" stroke-linecap="round" stroke-miterlimit="10" stroke-width="4" d="m176.856 45.182 17.018.253"/><path stroke="#31343B" stroke-dasharray="19 19" stroke-linecap="round" stroke-miterlimit="10" stroke-width="2" d="M199.398 75.168c4.464-.078 8.928-.15 13.386-.229"/><path stroke="#31343B" stroke-dasharray="30 30" stroke-miterlimit="10" stroke-width="3" d="M178.627 56.453c9.084.753 32.494 1.428 41.578.663"/><path fill="#708B0A" d="m112.844 22.917-.061.024c2.898-3.645 5.801-7.32 7.946-11.398.56-1.066 1.036-2.458.205-3.361-.741-.808-2.181-.693-3.072-.036-.892.656-1.35 1.692-1.729 2.692-.38 1-1.097 2.844-1.934 4.012-.801-1.596-2.892-5.024-2.783-5.024.162-2.65.319-5.295.476-7.946.042-.668-.012-1.5-.657-1.795-.452-.205-1.018-.018-1.367.32-.35.337-.536.795-.699 1.24-.988 2.67-1.681 5.434-2.319 8.663-1.639-4.578-3.103-9.042-4.585-9.042-1.909 0-2.777 3.048 1.115 12.422-1.868-1.314-5.482-4.247-7.711-4.518-2.639-.32-1.874 4.03 5.06 8.644.657 2.88 1.994 5.62 4.024 8.187.078.024.163.042.241.066.018 2.211.289 20.741 4.06 28.066.826 1.609 5.139 6.518 6.464 6.386 3.988-.392 7.072-8.048 7.072-8.048l-9.746-29.554Z"/><mask id="p" width="29" height="61" x="94" y="0" maskUnits="userSpaceOnUse" style="mask-type:luminance"><path fill="#fff" d="m112.844 22.917-.061.024c2.898-3.645 5.801-7.32 7.946-11.398.56-1.066 1.036-2.458.205-3.361-.741-.808-2.181-.693-3.072-.036-.892.656-1.35 1.692-1.729 2.692-.38 1-1.097 2.844-1.934 4.012-.801-1.596-2.892-5.024-2.783-5.024.162-2.65.319-5.295.476-7.946.042-.668-.012-1.5-.657-1.795-.452-.205-1.018-.018-1.367.32-.35.337-.536.795-.699 1.24-.988 2.67-1.681 5.434-2.319 8.663-1.639-4.578-3.103-9.042-4.585-9.042-1.909 0-2.777 3.048 1.115 12.422-1.868-1.314-5.482-4.247-7.711-4.518-2.639-.32-1.874 4.03 5.06 8.644.657 2.88 1.994 5.62 4.024 8.187.078.024.163.042.241.066.018 2.211.289 20.741 4.06 28.066.826 1.609 5.139 6.518 6.464 6.386 3.988-.392 7.072-8.048 7.072-8.048l-9.746-29.554Z"/></mask><g stroke="#31343B" stroke-miterlimit="10" stroke-width="2" mask="url(#p)"><path d="M108.5 28.235c1.157 13.32 1.681 23.41 7.392 33.922m-13.344-37.59a29.795 29.795 0 0 1 5.952 3.663c1.271-2.91 4.481-3.525 5.295-6.573 1.488-5.578.584-6.56-1.603-12.217-6.56.766-11.482 5.832-12.963 11.88"/></g><path fill="#31343B" d="M151.38 65.825 144.964 49.2l15.277-1.277 5.518 14.235c-1.271 3.078-9.639 6.078-14.379 3.668Z"/><mask id="q" width="22" height="20" x="144" y="47" maskUnits="userSpaceOnUse" style="mask-type:luminance"><path fill="#fff" d="M151.38 65.825 144.964 49.2l15.277-1.277 5.518 14.235c-1.271 3.078-9.639 6.078-14.379 3.668Z"/></mask><g stroke="#FCFAED" stroke-miterlimit="10" stroke-width="2" mask="url(#q)"><path d="M143.187 55.736c8.006 3.174 18.005 1.204 23.981-4.723m-22.21 10.952c8.006 3.175 18.006 1.205 23.982-4.723"/></g><path stroke="#31343B" stroke-miterlimit="10" stroke-width="2" d="M161.626 29.657c5.398-1.71 7.813-2.102 13.482-2.638"/><path fill="#708B0A" d="M136.47 45.977c-.542-1.217 8.03-16.47 12.518-17.644 9.831-2.573 19.548 3.054 20.319 10.3 1.277 11.983-11.536 14.513-11.536 14.513s-16.217 4.235-21.301-7.169Z"/><mask id="r" width="34" height="27" x="136" y="27" maskUnits="userSpaceOnUse" style="mask-type:luminance"><path fill="#fff" d="M136.47 45.977c-.542-1.217 8.03-16.47 12.518-17.644 9.831-2.573 19.548 3.054 20.319 10.3 1.277 11.983-11.536 14.513-11.536 14.513s-16.217 4.235-21.301-7.169Z"/></mask><g mask="url(#r)"><path stroke="#FCFAED" stroke-miterlimit="10" stroke-width="2" d="M136.428 46.055c2.982-4.597 9.759-13.392 14.144-16.814 1.627-1.265 5.741-3.108 7.934-2.698"/></g><mask id="s" width="34" height="27" x="136" y="27" maskUnits="userSpaceOnUse" style="mask-type:luminance"><path fill="#fff" d="M136.47 45.977c-.542-1.217 8.03-16.47 12.518-17.644 9.831-2.573 19.548 3.054 20.319 10.3 1.277 11.983-11.536 14.513-11.536 14.513s-16.217 4.235-21.301-7.169Z"/></mask><g mask="url(#s)"><path stroke="#31343B" stroke-miterlimit="10" stroke-width="2" d="M169.23 44.08c-.073-1.169-1.524-2.277-2.488-2.12-3.338.535-7.169 4.981-7.356 7.523-.072 1.048 2.338 3.079 4.669.886"/></g><mask id="t" width="34" height="27" x="136" y="27" maskUnits="userSpaceOnUse" style="mask-type:luminance"><path fill="#fff" d="M136.47 45.977c-.542-1.217 8.03-16.47 12.518-17.644 9.831-2.573 19.548 3.054 20.319 10.3 1.277 11.983-11.536 14.513-11.536 14.513s-16.217 4.235-21.301-7.169Z"/></mask><g mask="url(#t)"><path stroke="#31343B" stroke-miterlimit="10" stroke-width="2" d="M136.669 49.82s-1.03-3.187-.235-3.765c.801-.585 4.295 1.343 5.205 1.765 0 0 13.645 5.982 19.518 5.982"/></g><mask id="u" width="34" height="27" x="136" y="27" maskUnits="userSpaceOnUse" style="mask-type:luminance"><path fill="#fff" d="M136.47 45.977c-.542-1.217 8.03-16.47 12.518-17.644 9.831-2.573 19.548 3.054 20.319 10.3 1.277 11.983-11.536 14.513-11.536 14.513s-16.217 4.235-21.301-7.169Z"/></mask><g fill="#31343B" mask="url(#u)"><path d="M150.503 37.202c1.233-1.488 1.545-3.265.697-3.967-.849-.703-2.536-.065-3.768 1.424-1.233 1.489-1.545 3.265-.697 3.967.848.703 2.535.065 3.768-1.424Zm-5.98-2.527c.852-1.07 1.224-2.19.831-2.504-.393-.313-1.402.3-2.254 1.37-.852 1.07-1.224 2.191-.831 2.504.393.313 1.402-.3 2.254-1.37Z"/></g><path fill="#708B0A" d="M168.724 44.802c.391-1.078-.296-2.398-1.868-2.65-3.422 1.168-6.205 3.873-7.199 7.3.536 1.025 1.362 1.934 2.657 1.495 3.108-.73 5.464-3.543 6.41-6.145Z"/><mask id="v" width="10" height="10" x="159" y="42" maskUnits="userSpaceOnUse" style="mask-type:luminance"><path fill="#fff" d="M168.724 44.802c.391-1.078-.296-2.398-1.868-2.65-3.422 1.168-6.205 3.873-7.199 7.3.536 1.025 1.362 1.934 2.657 1.495 3.108-.73 5.464-3.543 6.41-6.145Z"/></mask><g mask="url(#v)"><path stroke="#31343B" stroke-miterlimit="10" stroke-width="2" d="M169.656 43.302c-1.608-1.512-10.903 5.53-8.729 9.151"/></g><path stroke="#31343B" stroke-miterlimit="10" stroke-width="2" d="M165.367 42.374c7.241-2.856 16.205-5.904 23.898-7.416"/><path stroke="#31343B" stroke-linecap="round" stroke-miterlimit="10" stroke-width="3" d="m141.427 26.139-2.915-5.934"/><path stroke="#31343B" stroke-dasharray="30 30" stroke-linecap="round" stroke-miterlimit="10" stroke-width="5" d="M145.796 24.386c-.47-2.783-1.819-6.898-2.289-9.68"/><path stroke="#31343B" stroke-dasharray="9 9" stroke-linecap="round" stroke-miterlimit="10" stroke-width="4" d="m150.006 22.271-.241-7.566"/></svg>