<svg xmlns="http://www.w3.org/2000/svg" width="327" height="342" fill="none"><path fill="#FF5D17" d="M140.645 219.497c.868 1.833-2.439 7.759-.409 8.103 53.105 8.955 56.15 17.402 70.589 29.843 15.175 13.08 39.862 24.883 57.804 55.397 4.976 8.464 39.174-4.649 39.174-4.649l8.218-1.129s11.033 6.417 10.493 9.969c-2.177 14.291-38.879 27.338-53.318 24.572-2.554-.491-7.612-4.305-7.612-4.305s-2.751-13.899-6.778-14.619c-41.515-7.416-82.686-45.821-86.844-45.821-44.658 0-60.177-10.82-77.432-20.954-2.226-1.309-4.73-3.749-8.038-3.388-15.339 1.62-59.686 15.306-73.748 11.541-6.171-1.654-17.058-18.843-10.935-24.834 12.048-11.819 19.579-23.966 23.475-26.045 5.795-3.078 11.394 5.517 14.995 4.06 27.322-11.083 34.198-10.936 38.929-12.851 1.915-.769 1.08-6.303 3.208-7.498 13.686-7.825 51.55 8.513 58.229 22.608Z"/><mask id="a" width="327" height="148" x="0" y="194" maskUnits="userSpaceOnUse" style="mask-type:luminance"><path fill="#fff" d="M140.645 219.497c.868 1.833-2.439 7.759-.409 8.103 53.105 8.955 56.15 17.402 70.589 29.843 15.175 13.08 39.862 24.883 57.804 55.397 4.976 8.464 39.174-4.649 39.174-4.649l8.218-1.129s11.033 6.417 10.493 9.969c-2.177 14.291-38.879 27.338-53.318 24.572-2.554-.491-7.612-4.305-7.612-4.305s-2.751-13.899-6.778-14.619c-41.515-7.416-82.686-45.821-86.844-45.821-44.658 0-60.177-10.82-77.432-20.954-2.226-1.309-4.73-3.749-8.038-3.388-15.339 1.62-59.686 15.306-73.748 11.541-6.171-1.654-17.058-18.843-10.935-24.834 12.048-11.819 19.579-23.966 23.475-26.045 5.795-3.078 11.394 5.517 14.995 4.06 27.322-11.083 34.198-10.936 38.929-12.851 1.915-.769 1.08-6.303 3.208-7.498 13.686-7.825 51.55 8.513 58.229 22.608Z"/></mask><g stroke="#31343B" stroke-miterlimit="10" stroke-width="2" mask="url(#a)"><path d="M76.8 198.281c5.403 14.619 10.248 56.674 10.248 56.674s4.207 1.441 5.664 1.441c15.339 0 55.136-34.607 55.136-34.607"/><path d="M125.224 239.485s42.874-4.436 76.4 28.468c0 0 43.25 30.613 64.09 51.076 0 0 24.719.114 50.257-15.765 0 0-33.952 35.475-56.331 35.475M86.196 248.064l-81.9 17.696-10.2-20.07 49.456-30.923"/><path d="m22.222 228.189-11.017-7.956 8.333-9.052 16.894 8.037m174.654 34.837s-4.305 13.325-10.837 13.325c0 0-28.337 14.144-40.14 11.05m111.237 34.312s-3.815 5.075-5.615 6.286c-3.078 2.079-14.21 5.845-14.21 5.845m7.891 10.199c2.325 1.555 34.984-11.508 48.555-30.416"/></g><path fill="#31343B" d="M94.498 89.467C93.303 80.53 69.795 63.57 69.795 63.57l-24.637 9.626S72.087 112.73 86.1 111.927c6.58-.36 9.266-16.059 8.398-22.46Z"/><mask id="b" width="50" height="49" x="45" y="63" maskUnits="userSpaceOnUse" style="mask-type:luminance"><path fill="#fff" d="M94.498 89.467C93.303 80.53 69.795 63.57 69.795 63.57l-24.637 9.626S72.087 112.73 86.1 111.927c6.58-.36 9.266-16.059 8.398-22.46Z"/></mask><g mask="url(#b)"><path stroke="#FCFAED" stroke-miterlimit="10" stroke-width="2" d="M93.517 63.241C83.4 66.5 74.494 73.243 68.716 82.018c-5.763 8.775-8.35 19.53-7.17 29.925"/></g><path fill="#FF5D17" d="M112.129 106.82c.605-8.021-15.16-24.899-23.099-22.852-6.745 1.735-18.891 10.411-12.229 25.013 2.112 4.617 10.428 17.517 16.584 17.909 6.924.442 18.203-12.785 18.744-20.07Z"/><mask id="c" width="39" height="44" x="74" y="83" maskUnits="userSpaceOnUse" style="mask-type:luminance"><path fill="#fff" d="M112.129 106.82c.605-8.021-15.16-24.899-23.099-22.852-6.745 1.735-18.891 10.411-12.229 25.013 2.112 4.617 10.428 17.517 16.584 17.909 6.924.442 18.203-12.785 18.744-20.07Z"/></mask><g mask="url(#c)"><path stroke="#31343B" stroke-miterlimit="10" stroke-width="2" d="M91.044 80.366C84.3 83.755 78.98 89.24 79.57 96.655c.59 7.415 5.14 17.352 12.49 21.559 1.13.639 20.07-2.897 21.151-20.708.426-6.908-22.165-17.14-22.165-17.14Z"/></g><mask id="d" width="39" height="44" x="74" y="83" maskUnits="userSpaceOnUse" style="mask-type:luminance"><path fill="#fff" d="M112.129 106.82c.605-8.021-15.16-24.899-23.099-22.852-6.745 1.735-18.891 10.411-12.229 25.013 2.112 4.617 10.428 17.517 16.584 17.909 6.924.442 18.203-12.785 18.744-20.07Z"/></mask><g mask="url(#d)"><path stroke="#31343B" stroke-miterlimit="10" stroke-width="2" d="M110.64 97.293c-8.349.442-11.525 5.108-13.522 8.709-2.8 5.075-6.09 12.687-7.4 22.296"/></g><path fill="#FF5D17" d="M67.945 14.148S44.028 51.7 37.676 71.329c-.163.475.164.983.671 1.064 3.618.606 16.55 2.636 21.004 1.13 3.585-1.212 11.344-9.839 11.344-9.839l15.143-39.91s8.823-3.831 11.344-2.407c8.431 4.731 24.998 15.388 25.996 8.873.901-5.894-19.808-8.496-16.157-11.656C113.078 13.362 123.932.954 118.333.66c-5.877-.295-17.336 18.023-17.336 12.277 0-2.799 4.534-11.688-1.228-12.916-2.161-.458-2.767 7.056-2.767 7.056S93.024-.34 83.235 1.674c-8.824 1.8-6.63 6.695-8.349 8.627-.982 1.113-3.16-3.88-5.975-1.54-1.424 1.18-.966 5.387-.966 5.387Z"/><mask id="e" width="87" height="75" x="37" y="0" maskUnits="userSpaceOnUse" style="mask-type:luminance"><path fill="#fff" d="M67.945 14.148S44.028 51.7 37.676 71.329c-.163.475.164.983.671 1.064 3.618.606 16.55 2.636 21.004 1.13 3.585-1.212 11.344-9.839 11.344-9.839l15.143-39.91s8.823-3.831 11.344-2.407c8.431 4.731 24.998 15.388 25.996 8.873.901-5.894-19.808-8.496-16.157-11.656C113.078 13.362 123.932.954 118.333.66c-5.877-.295-17.336 18.023-17.336 12.277 0-2.799 4.534-11.688-1.228-12.916-2.161-.458-2.767 7.056-2.767 7.056S93.024-.34 83.235 1.674c-8.824 1.8-6.63 6.695-8.349 8.627-.982 1.113-3.16-3.88-5.975-1.54-1.424 1.18-.966 5.387-.966 5.387Z"/></mask><g stroke="#31343B" stroke-miterlimit="10" stroke-width="2" mask="url(#e)"><path d="M122.442-4.169c.458 10.215-9.691 24.392-24.637 27.911m7.841-27.223c-.033 10.264-4.682 20.528-12.475 27.289M95.53-4.956c3.7 14.177-5.697 26.65-5.697 26.65s-15.585-11.638-21.56-17.99m-3.815 4.534c-3.061 5.648 18.171 18.597 25.096 16.043"/><path d="M80.42 23.055C65.689 38.835 57.65 59.184 57.356 80.58"/></g><path fill="#31343B" d="M87.59 168.898c-3.569 3.815-2.816 23.803.13 35.066 3.21 12.277 36.31 23.36 48.326 17.401 7.776-3.863 20.725-17.238 21.33-27.044 1.13-18.203-57.214-38.879-69.786-25.423Z"/><mask id="f" width="73" height="60" x="85" y="164" maskUnits="userSpaceOnUse" style="mask-type:luminance"><path fill="#fff" d="M87.59 168.898c-3.569 3.815-2.816 23.803.13 35.066 3.21 12.277 36.31 23.36 48.326 17.401 7.776-3.863 20.725-17.238 21.33-27.044 1.13-18.203-57.214-38.879-69.786-25.423Z"/></mask><g stroke="#FCFAED" stroke-miterlimit="10" stroke-width="2" mask="url(#f)"><path d="M159.914 203.325c-15.192 3.553-31.431 2.603-46.082-2.701-14.652-5.304-27.65-14.93-36.85-27.306m78.659 42.776c-15.192 3.552-31.431 2.603-46.083-2.701-14.651-5.304-27.65-14.93-36.85-27.306"/></g><path fill="#FF5D17" d="M182.275 127.268c-5.009-10.428-28.173-5.795-36.915-12.474-19.562-14.93-24.67-17.582-37.733-16.485-15.126 1.277-19.76 40.271-20.692 54.873-.442 6.777-3.454 17.205.163 23 9.528 15.241 52.189 29.876 69.263 23.656 4.617-1.687 11.721-16.109 11.721-16.109s20.742-42.841 14.193-56.461Z"/><mask id="g" width="99" height="104" x="85" y="98" maskUnits="userSpaceOnUse" style="mask-type:luminance"><path fill="#fff" d="M182.275 127.268c-5.009-10.428-28.173-5.795-36.915-12.474-19.562-14.93-24.67-17.582-37.733-16.485-15.126 1.277-19.76 40.271-20.692 54.873-.442 6.777-3.454 17.205.163 23 9.528 15.241 52.189 29.876 69.263 23.656 4.617-1.687 11.721-16.109 11.721-16.109s20.742-42.841 14.193-56.461Z"/></mask><g stroke="#31343B" stroke-miterlimit="10" stroke-width="2" mask="url(#g)"><path d="M134.44 77.356c8.202 48.226 1.621 68.968-6.368 90.986"/><path d="M176.479 189.606c-12.392 2.505-25.93-1.277-35.114-9.806-4.322-3.994-7.874-9.069-13.276-11.476-4.24-1.899-9.069-1.882-13.669-2.586-16.109-2.456-30.204-14.799-34.509-30.236"/><path d="M171.471 200.559c-12.393 2.505-25.931-1.277-35.115-9.806-4.321-3.994-7.874-9.069-13.276-11.475-4.24-1.899-9.069-1.883-13.669-2.587-16.109-2.456-30.203-14.799-34.509-30.236m102.118-26.93s-9.282 13.178-13.539 14.226c-4.616 1.129-11.655-.721-14.537-3.013-2.553-2.029-7.53-12.015-7.53-12.015m43.219 11.361c-5.599 3.863-7.809 11.476-9.118 18.089-1.867 9.495-.344 12.605 4.19 17.647"/></g><path fill="#31343B" d="m141.3 133.339 9.396-27.372-14.766-9.216-8.709 20.103c.279 5.369 11.05 19.448 14.079 16.485Z"/><mask id="h" width="24" height="38" x="127" y="96" maskUnits="userSpaceOnUse" style="mask-type:luminance"><path fill="#fff" d="m141.3 133.339 9.396-27.372-14.766-9.216-8.709 20.103c.279 5.369 11.05 19.448 14.079 16.485Z"/></mask><g mask="url(#h)"><path stroke="#FCFAED" stroke-miterlimit="10" stroke-width="2" d="M152.021 131.505c-18.629-9.348-30.186-30.711-27.649-51.092"/></g><path fill="#FF5D17" d="M170.505 56.4c13.882 2.93 19.841 16.779 20.741 26.781 1.032 11.508-19.906 48.816-28.991 50.077-3.635.507-11.099-1.13-13.309-3.438-5.01-5.238-14.439-30.76-14.439-30.76s-1.113-24.473 2.799-30.661c4.027-6.434 17.435-15.323 33.199-12Z"/><mask id="i" width="58" height="79" x="134" y="55" maskUnits="userSpaceOnUse" style="mask-type:luminance"><path fill="#fff" d="M170.505 56.4c13.882 2.93 19.841 16.779 20.741 26.781 1.032 11.508-19.906 48.816-28.991 50.077-3.635.507-11.099-1.13-13.309-3.438-5.01-5.238-14.439-30.76-14.439-30.76s-1.113-24.473 2.799-30.661c4.027-6.434 17.435-15.323 33.199-12Z"/></mask><g mask="url(#i)"><path fill="#FCFAED" d="M139.794 55.678c18.09 5.517 8.153 54.792 14.144 60.669 4.584 4.501 13.195 5.86 17.026 2.684 7.579-6.302 28.402-37.21 16.141-58.229-9.446-16.19-55.168-7.514-47.311-5.124Z"/></g><mask id="j" width="58" height="79" x="134" y="55" maskUnits="userSpaceOnUse" style="mask-type:luminance"><path fill="#fff" d="M170.505 56.4c13.882 2.93 19.841 16.779 20.741 26.781 1.032 11.508-19.906 48.816-28.991 50.077-3.635.507-11.099-1.13-13.309-3.438-5.01-5.238-14.439-30.76-14.439-30.76s-1.113-24.473 2.799-30.661c4.027-6.434 17.435-15.323 33.199-12Z"/></mask><g mask="url(#j)"><path fill="#31343B" d="M143.395 98.486c4.993-5.271 4.682-15.06 2.374-18.711-1.179-1.866-7.874-.966-7.874-.966s-4.191 12.687-2.587 16.829c1.343 3.486 6.598 4.42 8.087 2.848Z"/><path fill="#FF5D17" d="M143.706 96.194c3.209-2.586 4.535-15.077 2.374-18.71-1.114-1.85-5.926-2.44-7.465-.918-2.996 2.996-4.535 15.078-2.374 18.712 1.097 1.85 5.812 2.242 7.465.916Z"/><mask id="k" width="13" height="22" x="135" y="75" maskUnits="userSpaceOnUse" style="mask-type:luminance"><path fill="#fff" d="M143.706 96.194c3.209-2.586 4.535-15.077 2.374-18.71-1.114-1.85-5.926-2.44-7.465-.918-2.996 2.996-4.535 15.078-2.374 18.712 1.097 1.85 5.812 2.242 7.465.916Z"/></mask><g mask="url(#k)"><path stroke="#31343B" stroke-miterlimit="10" stroke-width="2" d="M137.812 69.903a26.966 26.966 0 0 1 3.225 15.749c-.573 5.402-2.832 10.624-6.417 14.782"/></g><path stroke="#31343B" stroke-miterlimit="10" stroke-width="2" d="M143.706 96.194c3.209-2.586 4.535-15.077 2.374-18.71-1.114-1.85-5.926-2.44-7.465-.918-2.996 2.996-4.535 15.078-2.374 18.712 1.097 1.85 5.812 2.242 7.465.916Z"/></g><mask id="l" width="58" height="79" x="134" y="55" maskUnits="userSpaceOnUse" style="mask-type:luminance"><path fill="#fff" d="M170.505 56.4c13.882 2.93 19.841 16.779 20.741 26.781 1.032 11.508-19.906 48.816-28.991 50.077-3.635.507-11.099-1.13-13.309-3.438-5.01-5.238-14.439-30.76-14.439-30.76s-1.113-24.473 2.799-30.661c4.027-6.434 17.435-15.323 33.199-12Z"/></mask><g fill="#31343B" mask="url(#l)"><path d="M177.316 106.481c-2.434-.459-3.8-4.058-3.05-8.038.751-3.98 3.332-6.835 5.767-6.376 2.434.459 3.799 4.057 3.049 8.037-.75 3.981-3.332 6.836-5.766 6.377Zm-16.897-4.8c-3.011-.572-4.753-4.722-3.89-9.27.863-4.548 4.003-7.772 7.015-7.2 3.011.571 4.753 4.721 3.89 9.269s-4.004 7.772-7.015 7.201Z"/></g><mask id="m" width="58" height="79" x="134" y="55" maskUnits="userSpaceOnUse" style="mask-type:luminance"><path fill="#fff" d="M170.505 56.4c13.882 2.93 19.841 16.779 20.741 26.781 1.032 11.508-19.906 48.816-28.991 50.077-3.635.507-11.099-1.13-13.309-3.438-5.01-5.238-14.439-30.76-14.439-30.76s-1.113-24.473 2.799-30.661c4.027-6.434 17.435-15.323 33.199-12Z"/></mask><g mask="url(#m)"><path stroke="#FF5D17" stroke-miterlimit="10" stroke-width="2" d="M190.952 85.717c-.114-10.526-5.893-21.936-16.878-27.125-9.675-4.568-22.525-2.325-30.514 4.714"/></g><path fill="#31343B" d="M203.263 149.514c8.349 10.018 14.946 21.445 18.531 32.184-2.75 7.89-9.56 14.291-18.335 16.501-10.149-8.054-17.336-19.612-19.988-32.151-.802-3.782-1.179-7.825.229-11.427 1.424-3.618 5.042-6.63 19.563-5.107Z"/><mask id="n" width="40" height="50" x="182" y="149" maskUnits="userSpaceOnUse" style="mask-type:luminance"><path fill="#fff" d="M203.263 149.514c8.349 10.018 14.946 21.445 18.531 32.184-2.75 7.89-9.56 14.291-18.335 16.501-10.149-8.054-17.336-19.612-19.988-32.151-.802-3.782-1.179-7.825.229-11.427 1.424-3.618 5.042-6.63 19.563-5.107Z"/></mask><g mask="url(#n)"><path stroke="#FCFAED" stroke-miterlimit="10" stroke-width="2" d="M226.868 158.074c-12.163 11.034-27.224 18.957-43.316 22.804"/></g><path fill="#FF5D17" d="M187.825 130.377c13.62 3.864 24.752 21.429 23.737 27.699-1.114 6.794-18.99 12.818-25.538 10.313-3.209-1.244-8.824-6.171-9.986-9.347-2.521-6.941 4.584-30.711 11.787-28.665Z"/><mask id="o" width="37" height="39" x="175" y="130" maskUnits="userSpaceOnUse" style="mask-type:luminance"><path fill="#fff" d="M187.825 130.377c13.62 3.864 24.752 21.429 23.737 27.699-1.114 6.794-18.99 12.818-25.538 10.313-3.209-1.244-8.824-6.171-9.986-9.347-2.521-6.941 4.584-30.711 11.787-28.665Z"/></mask><g mask="url(#o)"><path stroke="#31343B" stroke-miterlimit="10" stroke-width="2" d="M196.779 126.694c-7.874 3.962-13.702 11.607-15.339 20.136-.72 3.749-.638 7.759.999 11.213 1.735 3.651 5.075 6.369 8.741 8.169 3.667 1.801 7.695 2.767 11.673 3.716"/></g><path fill="#FE95B4" d="m312.289 109.734-63.992-23.606-4.862 2.194-17.156 58.556c-.082.229-40.042 19.628-40.042 19.628l.229 4.224 71.899 24.49s37.144-21.347 37.193-21.56c.033-.016 17.14-63.779 16.731-63.926Z"/><mask id="p" width="127" height="110" x="186" y="86" maskUnits="userSpaceOnUse" style="mask-type:luminance"><path fill="#fff" d="m312.289 109.734-63.992-23.606-4.862 2.194-17.156 58.556c-.082.229-40.042 19.628-40.042 19.628l.229 4.224 71.899 24.49s37.144-21.347 37.193-21.56c.033-.016 17.14-63.779 16.731-63.926Z"/></mask><g mask="url(#p)"><path stroke="#31343B" stroke-miterlimit="10" stroke-width="2" d="m300.993 175.723-90.577-33.87"/></g><mask id="q" width="127" height="110" x="186" y="86" maskUnits="userSpaceOnUse" style="mask-type:luminance"><path fill="#fff" d="m312.289 109.734-63.992-23.606-4.862 2.194-17.156 58.556c-.082.229-40.042 19.628-40.042 19.628l.229 4.224 71.899 24.49s37.144-21.347 37.193-21.56c.033-.016 17.14-63.779 16.731-63.926Z"/></mask><g mask="url(#q)"><path stroke="#31343B" stroke-miterlimit="10" stroke-width="2" d="m248.886 82.265-18.941 67.429-47.539 23"/></g><path fill="#FF5D17" d="M213.804 179.553c-5.942 0-11.459 10.576-11.459 18.286 0 2.75 8.283 7.383 8.283 7.383s16.191.9 57.264-19.333c3.487-1.719 8.021-4.126 13.227-8.169 3.88-3.012 12.327-5.811 15.748-10.51 3.078-4.223-11.197 1.015-11.197 1.015s4.764-10.46 5.075-14.193c.425-5.255-2.276-20.626-4.289-20.054-6.074 1.752.9 24.671-5.403 24.261-1.277-.082.066-6.744-.36-11.95-.442-5.451-3.536-11.246-5.255-10.575-3.094 1.211 1.441 20.004-3.961 20.43-2.259.18-.328-3.078-1.392-7.809-1.489-6.662-5.336-11.41-7.006-11.786-1.719-.393-1.326 7.841-.393 19.218.458 5.632-4.764 13.244-6.09 21.806-.606 3.683-18.58 1.98-42.792 1.98Z"/><mask id="r" width="96" height="73" x="202" y="133" maskUnits="userSpaceOnUse" style="mask-type:luminance"><path fill="#fff" d="M213.804 179.553c-5.942 0-11.459 10.576-11.459 18.286 0 2.75 8.283 7.383 8.283 7.383s16.191.9 57.264-19.333c3.487-1.719 8.021-4.126 13.227-8.169 3.88-3.012 12.327-5.811 15.748-10.51 3.078-4.223-11.197 1.015-11.197 1.015s4.764-10.46 5.075-14.193c.425-5.255-2.276-20.626-4.289-20.054-6.074 1.752.9 24.671-5.403 24.261-1.277-.082.066-6.744-.36-11.95-.442-5.451-3.536-11.246-5.255-10.575-3.094 1.211 1.441 20.004-3.961 20.43-2.259.18-.328-3.078-1.392-7.809-1.489-6.662-5.336-11.41-7.006-11.786-1.719-.393-1.326 7.841-.393 19.218.458 5.632-4.764 13.244-6.09 21.806-.606 3.683-18.58 1.98-42.792 1.98Z"/></mask><g stroke="#31343B" stroke-miterlimit="10" stroke-width="2" mask="url(#r)"><path d="M195.29 198.526s32.872 1.932 65.907-14.242m27.453-20.839c1.523-4.714-22.755-6.744-26.372-3.847-3.062 2.456-11.1 15.814-1.065 24.687 2.522 2.226 8.398 1.833 11.754.245 6.123-2.914 13.342-13.914 15.683-21.085Z"/></g></svg>